<svg width="76" height="75" viewBox="0 0 76 75" fill="none" xmlns="http://www.w3.org/2000/svg">
<circle cx="38" cy="37.5" r="37.5" fill="#4098FF"/>
<path d="M38.001 30.5C33.868 30.5 30.5006 33.8672 30.5006 38C30.5006 42.1328 33.868 45.5 38.001 45.5C42.134 45.5 45.5013 42.1328 45.5013 38C45.5013 33.8672 42.134 30.5 38.001 30.5ZM57.2519 36.7891L49.8531 33.0938L52.4704 25.25C52.822 24.1875 51.8141 23.1797 50.7594 23.5391L42.9153 26.1562L39.212 18.75C38.7119 17.75 37.29 17.75 36.79 18.75L33.0945 26.1484L25.2425 23.5312C24.18 23.1797 23.1721 24.1875 23.5315 25.2422L26.1488 33.0859L18.75 36.7891C17.75 37.2891 17.75 38.7109 18.75 39.2109L26.1488 42.9062L23.5315 50.7578C23.1799 51.8203 24.1878 52.8281 25.2425 52.4688L33.0867 49.8516L36.7822 57.25C37.2822 58.25 38.7041 58.25 39.2042 57.25L42.8996 49.8516L50.7438 52.4688C51.8063 52.8203 52.8142 51.8125 52.4548 50.7578L49.8375 42.9141L57.2363 39.2188C58.252 38.7109 58.252 37.2891 57.2519 36.7891ZM45.0716 45.0703C41.173 48.9688 34.8289 48.9688 30.9303 45.0703C27.0317 41.1719 27.0317 34.8281 30.9303 30.9297C34.8289 27.0312 41.173 27.0312 45.0716 30.9297C48.9703 34.8281 48.9703 41.1719 45.0716 45.0703Z" fill="white"/>
</svg>
