<svg width="76" height="75" viewBox="0 0 76 75" fill="none" xmlns="http://www.w3.org/2000/svg">
<circle cx="38" cy="37.5" r="37.5" fill="#4098FF"/>
<path d="M57.6502 48.911L48.5022 39.7635C46.6976 37.959 44.0025 37.6075 41.8307 38.6777L33.5031 30.3504V25.4993L23.5036 18L18.5039 22.9995L26.0035 32.9985H30.8548L39.1824 41.3258C38.12 43.4975 38.4637 46.1926 40.2683 47.9971L49.4162 57.1446C50.5568 58.2851 52.4005 58.2851 53.5332 57.1446L57.6502 53.0278C58.7829 51.8873 58.7829 50.0437 57.6502 48.911ZM44.4165 35.5764C46.6273 35.5764 48.7053 36.4357 50.2678 37.998L51.7833 39.5135C53.0176 38.9745 54.1894 38.2246 55.205 37.2091C58.1033 34.3109 59.0876 30.2332 58.1658 26.5304C57.9939 25.8274 57.1111 25.5852 56.5955 26.1008L50.7834 31.9127L45.479 31.03L44.5962 25.7258L50.4084 19.9139C50.924 19.3983 50.674 18.5156 49.9631 18.3359C46.2602 17.4219 42.1823 18.4062 39.2918 21.2966C37.0654 23.5229 36.0186 26.4601 36.0732 29.3895L42.4869 35.8029C43.1197 35.6545 43.7759 35.5764 44.4165 35.5764ZM36.2998 41.982L31.8703 37.5528L19.9648 49.4657C18.0117 51.4186 18.0117 54.5824 19.9648 56.5353C21.9178 58.4882 25.0817 58.4882 27.0347 56.5353L36.6904 46.88C36.0967 45.3255 35.917 43.6303 36.2998 41.982ZM23.5036 54.8714C22.4724 54.8714 21.6287 54.0277 21.6287 52.9966C21.6287 51.9576 22.4646 51.1218 23.5036 51.1218C24.5426 51.1218 25.3785 51.9576 25.3785 52.9966C25.3785 54.0277 24.5426 54.8714 23.5036 54.8714Z" fill="white"/>
</svg>
