<svg width="76" height="75" viewBox="0 0 76 75" fill="none" xmlns="http://www.w3.org/2000/svg">
<circle cx="38" cy="37.5" r="37.5" fill="#4098FF"/>
<path d="M37.4166 29.0799L23.3339 40.9445V53.7499C23.3339 54.0814 23.4627 54.3994 23.6919 54.6338C23.9211 54.8683 24.2319 55 24.556 55L33.1155 54.9773C33.4386 54.9757 33.7479 54.8432 33.9757 54.609C34.2036 54.3747 34.3315 54.0577 34.3315 53.7272V46.249C34.3315 45.9175 34.4603 45.5995 34.6895 45.365C34.9187 45.1306 35.2295 44.9989 35.5537 44.9989H40.4422C40.7663 44.9989 41.0772 45.1306 41.3064 45.365C41.5355 45.5995 41.6643 45.9175 41.6643 46.249V53.7217C41.6638 53.8862 41.695 54.0492 41.7562 54.2013C41.8174 54.3535 41.9074 54.4917 42.0209 54.6082C42.1344 54.7247 42.2693 54.8172 42.4179 54.8802C42.5664 54.9433 42.7256 54.9758 42.8864 54.9758L51.4429 55C51.767 55 52.0778 54.8683 52.307 54.6338C52.5362 54.3994 52.665 54.0814 52.665 53.7499V40.9359L38.5853 29.0799C38.4198 28.9434 38.2136 28.869 38.001 28.869C37.7884 28.869 37.5822 28.9434 37.4166 29.0799ZM59.6617 37.1441L53.2761 31.7599V20.9376C53.2761 20.6889 53.1795 20.4505 53.0076 20.2746C52.8357 20.0988 52.6026 20 52.3595 20H48.082C47.8389 20 47.6058 20.0988 47.4339 20.2746C47.262 20.4505 47.1654 20.6889 47.1654 20.9376V26.6109L40.3268 20.8556C39.6706 20.3031 38.8471 20.0011 37.9972 20.0011C37.1473 20.0011 36.3237 20.3031 35.6675 20.8556L16.3326 37.1441C16.2398 37.2226 16.163 37.319 16.1067 37.4278C16.0503 37.5367 16.0154 37.6558 16.0041 37.7784C15.9927 37.9011 16.0051 38.0248 16.0405 38.1425C16.0759 38.2602 16.1337 38.3697 16.2104 38.4646L18.1582 40.8867C18.2348 40.9819 18.3289 41.0608 18.4353 41.1187C18.5417 41.1767 18.6582 41.2126 18.7782 41.2244C18.8982 41.2363 19.0192 41.2238 19.1345 41.1877C19.2497 41.1516 19.3569 41.0926 19.4498 41.0141L37.4166 25.8764C37.5822 25.74 37.7884 25.6655 38.001 25.6655C38.2136 25.6655 38.4198 25.74 38.5853 25.8764L56.5529 41.0141C56.6457 41.0926 56.7526 41.1517 56.8677 41.1879C56.9828 41.2241 57.1038 41.2368 57.2236 41.2251C57.3435 41.2135 57.46 41.1779 57.5664 41.1202C57.6728 41.0625 57.767 40.984 57.8438 40.889L59.7915 38.4669C59.8682 38.3715 59.9257 38.2615 59.9607 38.1432C59.9957 38.025 60.0075 37.9008 59.9954 37.7779C59.9833 37.655 59.9477 37.5357 59.8904 37.4269C59.8331 37.3182 59.7554 37.222 59.6617 37.1441Z" fill="white"/>
</svg>
