<svg width="76" height="75" viewBox="0 0 76 75" fill="none" xmlns="http://www.w3.org/2000/svg">
<circle cx="38" cy="37.5" r="37.5" fill="#4098FF"/>
<path fill-rule="evenodd" clip-rule="evenodd" d="M30 35C30 35 27.84 33.09 25.37 30.79L18.25 39.79H31.25L38.5 30H35.67C33.9072 31.8056 32.0119 33.4769 30 35Z" fill="white"/>
<path fill-rule="evenodd" clip-rule="evenodd" d="M16.26 42.25L10.5 49.5H23.91L29.33 42.25H16.26Z" fill="white"/>
<path fill-rule="evenodd" clip-rule="evenodd" d="M27.0312 49.5H53.5012L61.3512 36.75H36.5712L27.0312 49.5Z" fill="white"/>
<path fill-rule="evenodd" clip-rule="evenodd" d="M41.6292 30L38.4492 34.25H62.8792L65.4992 30H41.6292Z" fill="white"/>
<path d="M36 22C36 18.69 33.31 16 30 16C26.69 16 24 18.69 24 22C24 28.5 30 33 30 33C30 33 36.5 28.5 36 22ZM28 22C28 20.9 28.9 20 30 20C31.1 20 32 20.9 32 22C32 22.5304 31.7893 23.0391 31.4142 23.4142C31.0391 23.7893 30.5304 24 30 24C29.4696 24 28.9609 23.7893 28.5858 23.4142C28.2107 23.0391 28 22.5304 28 22Z" fill="white"/>
</svg>
