<svg width="76" height="75" viewBox="0 0 76 75" fill="none" xmlns="http://www.w3.org/2000/svg">
<circle cx="38" cy="37.5" r="37.5" fill="#4098FF"/>
<path d="M30.3571 27.7319V24.2908C30.3571 23.7231 30.8152 23.2585 31.375 23.2585H34.7679C35.3277 23.2585 35.7857 23.7231 35.7857 24.2908V27.7319C35.7857 28.2997 35.3277 28.7642 34.7679 28.7642H31.375C30.8152 28.7642 30.3571 28.2997 30.3571 27.7319ZM42.2321 28.7642H45.625C46.1848 28.7642 46.6429 28.2997 46.6429 27.7319V24.2908C46.6429 23.7231 46.1848 23.2585 45.625 23.2585H42.2321C41.6723 23.2585 41.2143 23.7231 41.2143 24.2908V27.7319C41.2143 28.2997 41.6723 28.7642 42.2321 28.7642ZM31.375 37.0227H34.7679C35.3277 37.0227 35.7857 36.5582 35.7857 35.9904V32.5494C35.7857 31.9816 35.3277 31.517 34.7679 31.517H31.375C30.8152 31.517 30.3571 31.9816 30.3571 32.5494V35.9904C30.3571 36.5582 30.8152 37.0227 31.375 37.0227ZM42.2321 37.0227H45.625C46.1848 37.0227 46.6429 36.5582 46.6429 35.9904V32.5494C46.6429 31.9816 46.1848 31.517 45.625 31.517H42.2321C41.6723 31.517 41.2143 31.9816 41.2143 32.5494V35.9904C41.2143 36.5582 41.6723 37.0227 42.2321 37.0227ZM35.7857 44.2489V40.8079C35.7857 40.2401 35.3277 39.7756 34.7679 39.7756H31.375C30.8152 39.7756 30.3571 40.2401 30.3571 40.8079V44.2489C30.3571 44.8167 30.8152 45.2812 31.375 45.2812H34.7679C35.3277 45.2812 35.7857 44.8167 35.7857 44.2489ZM42.2321 45.2812H45.625C46.1848 45.2812 46.6429 44.8167 46.6429 44.2489V40.8079C46.6429 40.2401 46.1848 39.7756 45.625 39.7756H42.2321C41.6723 39.7756 41.2143 40.2401 41.2143 40.8079V44.2489C41.2143 44.8167 41.6723 45.2812 42.2321 45.2812ZM57.5 55.9485V59.0455H19.5V55.9485C19.5 55.3807 19.958 54.9162 20.5179 54.9162H22.1719V17.0646C22.1719 15.9205 23.0795 15 24.2076 15H52.7924C53.9205 15 54.8281 15.9205 54.8281 17.0646V54.9162H56.4821C57.042 54.9162 57.5 55.3807 57.5 55.9485ZM26.2433 54.8302H35.7857V49.0664C35.7857 48.4986 36.2437 48.0341 36.8036 48.0341H40.1964C40.7562 48.0341 41.2143 48.4986 41.2143 49.0664V54.8302H50.7567V19.2153L26.2857 19.1293L26.2433 54.8302Z" fill="white"/>
</svg>
