<svg width="96" height="91" viewBox="0 0 96 91" fill="none" xmlns="http://www.w3.org/2000/svg">
<path d="M32.6833 35.5333V1H4.31667V35.5333H0V38H37V35.5333H32.6833ZM30.2167 35.5333H19.7333V30.6H17.2667V35.5333H6.78333V3.46667H30.2167V35.5333Z" fill="#3C3C3C"/>
<path d="M11.1758 23.3542H13.4883V25.6667H11.1758V23.3542Z" fill="#3C3C3C"/>
<path d="M17.3438 23.3542H19.6562V25.6667H17.3438V23.3542Z" fill="#3C3C3C"/>
<path d="M23.5117 23.3542H25.8242V25.6667H23.5117V23.3542Z" fill="#3C3C3C"/>
<path d="M11.1758 15.6458H13.4883V18.3437H11.1758V15.6458Z" fill="#3C3C3C"/>
<path d="M17.3438 15.6458H19.6562V18.3437H17.3438V15.6458Z" fill="#3C3C3C"/>
<path d="M23.5117 15.6458H25.8242V18.3437H23.5117V15.6458Z" fill="#3C3C3C"/>
<path d="M11.1758 8.323H13.4883V11.0209H11.1758V8.323Z" fill="#3C3C3C"/>
<path d="M17.3438 8.323H19.6562V11.0209H17.3438V8.323Z" fill="#3C3C3C"/>
<path d="M23.5117 8.323H25.8242V11.0209H23.5117V8.323Z" fill="#3C3C3C"/>
<path d="M30.3333 91C30.3333 91 27 91 27 87.6667C27 84.3333 30.3333 74.3333 47 74.3333C63.6667 74.3333 67 84.3333 67 87.6667C67 91 63.6667 91 63.6667 91H30.3333ZM47 71C49.6522 71 52.1957 69.9464 54.0711 68.0711C55.9464 66.1957 57 63.6522 57 61C57 58.3478 55.9464 55.8043 54.0711 53.9289C52.1957 52.0536 49.6522 51 47 51C44.3478 51 41.8043 52.0536 39.9289 53.9289C38.0536 55.8043 37 58.3478 37 61C37 63.6522 38.0536 66.1957 39.9289 68.0711C41.8043 69.9464 44.3478 71 47 71Z" fill="#3C3C3C"/>
<path d="M74.3067 13.2994C74.3052 12.6996 74.4516 12.1086 74.733 11.5789C75.0143 11.0491 75.4219 10.5969 75.9197 10.2622C76.4175 9.92752 76.9901 9.7207 77.5868 9.66006C78.1836 9.59941 78.7861 9.6868 79.341 9.9145C79.8959 10.1422 80.3862 10.5032 80.7684 10.9655C81.1505 11.4278 81.4129 11.9772 81.5321 12.5651C81.6513 13.1529 81.6238 13.7611 81.452 14.3358C81.2802 14.9105 80.9693 15.434 80.547 15.8599L80.685 15.7066L77.9558 18.6351V20.2603" stroke="#3C3C3C" stroke-width="2" stroke-linecap="round" stroke-linejoin="round"/>
<path d="M78.0782 26.5006C78.925 26.5006 79.6114 25.8141 79.6114 24.9673C79.6114 24.1205 78.925 23.4341 78.0782 23.4341C77.2314 23.4341 76.5449 24.1205 76.5449 24.9673C76.5449 25.8141 77.2314 26.5006 78.0782 26.5006Z" fill="#3C3C3C"/>
<path d="M78.7074 32.9709L78.1708 38C82.8791 35.6966 87.0564 32.4384 90.4368 28.4325C93.1014 25.0584 94.4426 20.8275 94.2086 16.5345C94.0561 12.2647 92.2137 8.23039 89.0867 5.31904C85.9597 2.40769 81.8042 0.857784 77.5345 1.01028C73.2647 1.16277 69.2304 3.00517 66.319 6.13217C63.4077 9.25918 61.8578 13.4146 62.0103 17.6844C62.2785 21.8963 64.167 25.8408 67.2799 28.6907C70.3928 31.5406 74.4882 33.0746 78.7074 32.9709V32.9709Z" stroke="#231815" stroke-width="2" stroke-linecap="round" stroke-linejoin="round"/>
</svg>
