<svg width="18" height="17" viewBox="0 0 18 17" fill="none" xmlns="http://www.w3.org/2000/svg">
<path d="M15.6687 6.30279C15.891 7.01486 16.0027 7.75682 16 8.50278C15.9993 10.1738 15.4407 11.7968 14.4126 13.1141C13.3845 14.4315 11.946 15.3678 10.3252 15.7745C8.70438 16.1811 6.9942 16.0349 5.466 15.3589C3.9378 14.6829 2.67912 13.5159 1.88969 12.0431C1.10027 10.5703 0.825315 8.87602 1.10846 7.22915C1.39161 5.58228 2.21664 4.07714 3.45263 2.95256C4.68863 1.82798 6.26479 1.14839 7.93101 1.02162C9.59723 0.89485 11.2581 1.32816 12.65 2.2528" stroke="#5E5E5E" stroke-width="2" stroke-linejoin="round"/>
<path d="M5.84375 8.09036L8.09374 10.3404L14.8875 3.54663" stroke="#4098FF" stroke-width="4" stroke-miterlimit="10" stroke-linecap="square"/>
</svg>
