<svg width="260" height="65" viewBox="0 0 260 65" fill="none" xmlns="http://www.w3.org/2000/svg">
<path d="M259.996 0H0V65H259.996V0Z" fill="#231815"/>
<path d="M260 65H0V0L260 65Z" fill="#DB0056"/>
<path d="M44.4771 45.8834H37.835V19.1084H44.4657C46.6058 19.1084 48.2326 19.618 49.346 20.6371C50.4594 21.6562 51.0148 23.0703 51.0123 24.8792V40.1279C51.0123 41.9674 50.4632 43.3879 49.3651 44.3891C48.267 45.3904 46.6377 45.8885 44.4771 45.8834ZM48.1536 40.1279V24.8792C48.1798 24.4297 48.1086 23.9799 47.9451 23.5604C47.7815 23.141 47.5293 22.7617 47.2058 22.4486C46.5765 21.8702 45.6708 21.5823 44.4886 21.5849H40.7395V43.4146H44.4886C46.932 43.4146 48.1536 42.319 48.1536 40.1279Z" fill="white"/>
<path d="M65.6457 45.8834H62.7642V19.1084H74.088V21.5811H65.6457V31.059H72.4408V33.5278H65.6457V45.8834Z" fill="white"/>
<path d="M86.8567 45.8834H83.9751V19.1084H86.8567V45.8834Z" fill="white"/>
<path d="M109.301 40.7357V38.4733H112.187V40.7357C112.187 42.5778 111.621 43.9957 110.498 45.0008C109.374 46.0059 107.681 46.5027 105.43 46.5027C103.179 46.5027 101.478 46.0021 100.324 45.0008C99.17 43.9995 98.6006 42.5778 98.6006 40.7357V24.2641C98.6006 22.422 99.1637 21.0003 100.29 19.999C101.416 18.9977 103.105 18.4971 105.357 18.4971C107.607 18.4971 109.309 18.9977 110.463 19.999C111.617 21.0003 112.194 22.422 112.194 24.2641V33.3216H101.494V40.7357C101.494 42.9345 102.798 44.0326 105.407 44.0301C108.016 44.0275 109.314 42.9294 109.301 40.7357ZM101.478 24.2641V30.8527H109.301V24.2641C109.301 22.0678 107.998 20.9685 105.392 20.9659C102.785 20.9634 101.481 22.0627 101.478 24.2641Z" fill="white"/>
<path d="M123.923 45.8834V19.1084H126.809V43.4146H134.345V45.8834H123.923Z" fill="white"/>
<path d="M150.034 45.8834H143.403V19.1084H150.034C152.179 19.1084 153.806 19.618 154.914 20.6371C156.022 21.6562 156.579 23.0703 156.584 24.8792V40.1279C156.584 41.9674 156.035 43.3879 154.937 44.3891C153.839 45.3904 152.204 45.8885 150.034 45.8834ZM153.702 40.1203V24.8792C153.729 24.4297 153.657 23.9799 153.494 23.5604C153.33 23.141 153.078 22.7617 152.755 22.4486C152.12 21.8702 151.213 21.5823 150.034 21.5849H146.288V43.4146H150.034C152.479 43.4146 153.702 42.319 153.702 40.1279V40.1203Z" fill="white"/>
<path d="M171.412 45.8842H167.705V41.3555H171.412V45.8842Z" fill="white"/>
<path d="M188.09 19.1084H190.976V41.1445C190.976 42.9025 190.48 44.2337 189.489 45.1382C188.498 46.0427 187.126 46.4962 185.373 46.4987C183.615 46.4987 182.256 46.0452 181.295 45.1382C180.335 44.2312 179.854 42.8999 179.854 41.1445V38.4693H182.736V41.3088C182.736 43.1203 183.615 44.0261 185.373 44.0261C187.185 44.0261 188.09 43.1203 188.09 41.3088V19.1084Z" fill="white"/>
<path d="M205.387 45.8834H202.506V19.1084H208.724C210.864 19.1084 212.491 19.618 213.604 20.6371C214.718 21.6562 215.274 23.0703 215.274 24.8792V31.8806C215.274 33.7227 214.724 35.1406 213.623 36.1457C212.523 37.1508 210.895 37.6476 208.724 37.6476H205.387V45.8834ZM212.389 31.8806V24.8792C212.416 24.4297 212.345 23.9796 212.181 23.56C212.018 23.1404 211.765 22.7613 211.441 22.4486C210.812 21.8702 209.906 21.5823 208.724 21.5849H205.387V35.1597H208.724C211.165 35.1597 212.386 34.0667 212.389 31.8806Z" fill="white"/>
<path d="M246.987 13.4332H244.973V13.1657H247.002V12.4014H247.247V14.2167H247.002L246.987 13.4332Z" fill="white"/>
<path d="M246.815 15.738C246.813 15.9249 246.757 16.1072 246.652 16.262C246.547 16.4168 246.399 16.5371 246.226 16.6078C246.052 16.6784 245.862 16.6963 245.679 16.6592C245.496 16.6221 245.328 16.5316 245.196 16.3991C245.064 16.2667 244.974 16.0981 244.938 15.9148C244.901 15.7314 244.92 15.5413 244.991 15.3685C245.063 15.1957 245.183 15.0479 245.339 14.9436C245.494 14.8393 245.676 14.7833 245.863 14.7825C245.99 14.7794 246.115 14.8019 246.232 14.8489C246.349 14.8958 246.456 14.9661 246.545 15.0555C246.634 15.145 246.704 15.2516 246.75 15.3689C246.797 15.4862 246.819 15.6118 246.815 15.738ZM245.153 15.738C245.149 15.8802 245.187 16.0204 245.264 16.1405C245.34 16.2606 245.451 16.3551 245.581 16.4121C245.712 16.469 245.856 16.4857 245.996 16.46C246.136 16.4343 246.265 16.3674 246.367 16.2679C246.468 16.1683 246.538 16.0407 246.567 15.9013C246.596 15.7619 246.582 15.6171 246.528 15.4855C246.474 15.3539 246.382 15.2414 246.263 15.1624C246.145 15.0835 246.006 15.0417 245.863 15.0424C245.77 15.0387 245.678 15.0541 245.591 15.0876C245.504 15.121 245.425 15.1719 245.358 15.237C245.292 15.3021 245.239 15.3801 245.204 15.4663C245.168 15.5524 245.151 15.6449 245.153 15.738Z" fill="white"/>
<path d="M246.54 18.1542H244.973V17.902H246.555V17.2676H246.792V18.7963H246.555L246.54 18.1542Z" fill="white"/>
<path d="M245.447 19.7625L244.958 19.5714V19.3115L246.777 20.0529V20.351L244.958 21.1154V20.8479L245.447 20.6568V19.7625ZM246.073 20.3931C246.398 20.2631 246.555 20.2058 246.559 20.2058L246.051 20.0109L245.668 19.858V20.5574L246.073 20.3931Z" fill="white"/>
<path d="M246.777 21.7451V21.9974H245.195V22.949H244.973V21.7451H246.777Z" fill="white"/>
<path d="M246.777 25.4031C246.791 25.531 246.778 25.6603 246.738 25.7827C246.698 25.9051 246.633 26.0176 246.547 26.113C246.461 26.2083 246.355 26.2843 246.237 26.3358C246.12 26.3874 245.992 26.4134 245.863 26.4121C245.736 26.4139 245.61 26.3887 245.494 26.3382C245.377 26.2877 245.273 26.213 245.187 26.1191C245.101 26.0252 245.037 25.9141 244.997 25.7934C244.958 25.6726 244.944 25.5448 244.958 25.4184V24.7764H246.777V25.4031ZM245.195 25.4031C245.182 25.4972 245.19 25.5929 245.218 25.6835C245.246 25.7742 245.293 25.8576 245.357 25.9279C245.421 25.9982 245.499 26.0537 245.587 26.0905C245.674 26.1273 245.769 26.1444 245.863 26.1407C245.961 26.1442 246.058 26.126 246.148 26.0875C246.237 26.0491 246.317 25.9912 246.382 25.9182C246.447 25.8451 246.494 25.7586 246.522 25.665C246.549 25.5713 246.555 25.4727 246.54 25.3764V24.9942H245.195V25.4031Z" fill="white"/>
<path d="M245.68 27.7648C245.68 27.6921 245.68 27.6042 245.68 27.5622V27.3635H244.973V27.1074H246.792V27.7074C246.792 28.1584 246.594 28.4183 246.246 28.4183C246.125 28.4254 246.007 28.3875 245.913 28.3119C245.819 28.2363 245.756 28.1285 245.737 28.0094L244.973 28.4756V28.2004L245.68 27.7648ZM245.883 27.7151C245.883 28.0093 245.99 28.1622 246.211 28.1622C246.433 28.1622 246.548 27.9941 246.548 27.7151V27.3635H245.883V27.7151Z" fill="white"/>
<path d="M246.815 30.0006C246.813 30.1876 246.757 30.3699 246.652 30.5247C246.547 30.6795 246.399 30.7998 246.226 30.8705C246.052 30.9411 245.862 30.959 245.679 30.9219C245.496 30.8848 245.328 30.7943 245.196 30.6618C245.064 30.5294 244.974 30.3608 244.938 30.1774C244.901 29.9941 244.92 29.804 244.991 29.6312C245.063 29.4584 245.183 29.3106 245.339 29.2063C245.494 29.102 245.676 29.046 245.863 29.0452C245.99 29.042 246.115 29.0646 246.232 29.1116C246.349 29.1585 246.456 29.2288 246.545 29.3182C246.634 29.4077 246.704 29.5143 246.75 29.6316C246.797 29.7489 246.819 29.8745 246.815 30.0006ZM245.153 30.0006C245.149 30.1428 245.189 30.2826 245.266 30.4022C245.343 30.5218 245.453 30.6157 245.584 30.6721C245.714 30.7284 245.859 30.7445 245.998 30.7184C246.138 30.6923 246.267 30.6251 246.368 30.5254C246.47 30.4257 246.539 30.298 246.567 30.1587C246.596 30.0194 246.582 29.8748 246.528 29.7434C246.474 29.612 246.381 29.4998 246.263 29.421C246.145 29.3422 246.006 29.3005 245.863 29.3013C245.77 29.2981 245.677 29.314 245.59 29.3479C245.503 29.3818 245.424 29.433 245.358 29.4984C245.291 29.5638 245.239 29.6421 245.204 29.7284C245.168 29.8148 245.151 29.9074 245.153 30.0006Z" fill="white"/>
<path d="M244.973 32.9442L246.406 31.9123C246.406 31.9123 246.208 31.9123 245.99 31.9123H244.973V31.6562H246.792V31.9161L245.355 32.948H246.766V33.2002H244.973V32.9442Z" fill="white"/>
<path d="M246.777 34.0137V35.2901H246.54V34.2812H246.016V35.0723H245.783V34.2812H245.195V35.3207H244.973V34.0137H246.777Z" fill="white"/>
<path d="M245.626 37.312C245.302 37.3387 245.152 37.6101 245.152 37.9578C245.152 38.3056 245.286 38.4891 245.561 38.4891C245.944 38.4891 245.944 38.1069 246.016 37.8279C246.089 37.5489 246.196 37.1247 246.658 37.1247C247.04 37.1247 247.277 37.4152 247.277 37.8891C247.3 38.0729 247.255 38.2587 247.151 38.4119C247.047 38.5652 246.891 38.6754 246.712 38.7222L246.643 38.47C246.767 38.4367 246.874 38.3592 246.944 38.2521C247.015 38.1451 247.044 38.0159 247.025 37.8891C247.025 37.5566 246.884 37.3884 246.643 37.3884C246.341 37.3884 246.261 37.675 246.211 37.9999C246.161 38.3247 246.039 38.7642 245.538 38.7642C245.11 38.7642 244.893 38.4661 244.893 37.9617C244.893 37.5795 245.019 37.14 245.535 37.0674L245.626 37.312Z" fill="white"/>
<path d="M246.777 39.4473V40.7237H246.54V39.6995H246.016V40.4868H245.783V39.6995H245.195V40.739H244.973V39.4473H246.777Z" fill="white"/>
<path d="M245.68 42.1349C245.68 42.0623 245.68 41.9705 245.68 41.9323V41.7298H244.973V41.4775H246.792V42.0737C246.792 42.5247 246.594 42.7846 246.246 42.7846C246.126 42.7908 246.008 42.7524 245.915 42.6769C245.822 42.6014 245.76 42.4941 245.741 42.3756L244.977 42.8457V42.5667L245.68 42.1349ZM245.883 42.0852C245.883 42.3756 245.99 42.5285 246.211 42.5285C246.433 42.5285 246.548 42.3642 246.548 42.0852V41.7298H245.883V42.0852Z" fill="white"/>
<path d="M244.973 44.1218L246.792 43.3574V43.6364L245.902 44.0186C245.47 44.2058 245.264 44.2861 245.256 44.2899L245.902 44.5574L246.792 44.9396V45.2071L244.973 44.4428V44.1218Z" fill="white"/>
<path d="M246.777 45.8223V46.0745H244.973V45.8223H246.777Z" fill="white"/>
<path d="M245.454 48.605C245.298 48.5329 245.164 48.42 245.066 48.2782C244.968 48.1363 244.91 47.9707 244.899 47.7989C244.887 47.627 244.922 47.4551 244.999 47.3013C245.077 47.1475 245.195 47.0175 245.34 46.9249C245.485 46.8322 245.653 46.7804 245.825 46.7749C245.997 46.7694 246.168 46.8103 246.319 46.8935C246.47 46.9766 246.595 47.0988 246.683 47.2473C246.77 47.3959 246.816 47.5651 246.815 47.7374C246.823 47.9175 246.776 48.0957 246.679 48.248C246.583 48.4004 246.442 48.5196 246.276 48.5897L246.211 48.3489C246.327 48.2956 246.425 48.2097 246.492 48.1018C246.56 47.994 246.595 47.8687 246.593 47.7412C246.595 47.6148 246.562 47.4904 246.5 47.3805C246.437 47.2706 246.347 47.1793 246.237 47.1158C246.128 47.0524 246.004 47.0191 245.878 47.0193C245.751 47.0195 245.627 47.0532 245.518 47.117C245.409 47.1808 245.319 47.2725 245.256 47.3825C245.194 47.4926 245.162 47.6172 245.164 47.7436C245.166 47.87 245.201 47.9937 245.266 48.102C245.331 48.2104 245.424 48.2995 245.535 48.3604L245.454 48.605Z" fill="white"/>
<path d="M246.777 49.3232V50.5997H246.54V49.5755H246.016V50.3628H245.783V49.5755H245.195V50.615H244.973V49.3232H246.777Z" fill="white"/>
<path d="M245.473 51.448C245.259 51.4709 245.126 51.6543 245.126 51.9448C245.126 52.2352 245.229 52.3537 245.443 52.3537C245.726 52.3537 245.749 52.0747 245.825 51.769C245.871 51.5435 245.955 51.2531 246.314 51.2531C246.673 51.2531 246.823 51.4977 246.823 51.9028C246.823 52.3079 246.673 52.5257 246.379 52.5945L246.318 52.3728C246.414 52.3468 246.497 52.2866 246.552 52.2036C246.607 52.1206 246.63 52.0204 246.616 51.9219C246.616 51.662 246.513 51.5129 246.326 51.5129C246.138 51.5129 246.054 51.7193 246.001 52.0059C245.955 52.2352 245.875 52.6136 245.454 52.6136C245.095 52.6136 244.927 52.3384 244.927 51.9448C244.902 51.784 244.939 51.6197 245.029 51.4846C245.12 51.3494 245.258 51.2532 245.416 51.2148L245.473 51.448Z" fill="white"/>
</svg>
