<svg width="76" height="75" viewBox="0 0 76 75" fill="none" xmlns="http://www.w3.org/2000/svg">
<circle cx="38" cy="37.5" r="37.5" fill="#4098FF"/>
<path d="M58 28.8333V51.5476C58 53.6376 56.3203 55.3333 54.25 55.3333H21.75C19.6797 55.3333 18 53.6376 18 51.5476V28.8333C18 26.7433 19.6797 25.0476 21.75 25.0476H28.625L29.5859 22.4528C30.1328 20.978 31.5312 20 33.0938 20H42.8984C44.4609 20 45.8594 20.978 46.4062 22.4528L47.375 25.0476H54.25C56.3203 25.0476 58 26.7433 58 28.8333ZM47.375 40.1905C47.375 34.9693 43.1719 30.7262 38 30.7262C32.8281 30.7262 28.625 34.9693 28.625 40.1905C28.625 45.4116 32.8281 49.6548 38 49.6548C43.1719 49.6548 47.375 45.4116 47.375 40.1905ZM44.875 40.1905C44.875 44.0156 41.7891 47.131 38 47.131C34.2109 47.131 31.125 44.0156 31.125 40.1905C31.125 36.3653 34.2109 33.25 38 33.25C41.7891 33.25 44.875 36.3653 44.875 40.1905Z" fill="white"/>
</svg>
