<svg width="75" height="75" viewBox="0 0 75 75" fill="none" xmlns="http://www.w3.org/2000/svg">
<circle cx="37.5" cy="37.5" r="37.5" fill="#4098FF"/>
<path d="M32.1021 26.0053C30.3138 26.0741 28.6971 26.7124 27.8327 27.5778C27.7372 27.6732 27.6239 27.7489 27.4992 27.8005C27.3744 27.8521 27.2407 27.8786 27.1057 27.8786C26.9707 27.8785 26.8371 27.8519 26.7124 27.8002C26.5877 27.7485 26.4744 27.6727 26.379 27.5772C26.2835 27.4818 26.2079 27.3684 26.1562 27.2437C26.1046 27.1189 26.0781 26.9852 26.0781 26.8503C26.0782 26.7153 26.1048 26.5816 26.1565 26.4569C26.2082 26.3322 26.284 26.2189 26.3795 26.1235C27.7125 24.7904 29.8831 24.034 32.0219 23.9508C34.1751 23.8675 36.5256 24.4564 38.1721 26.1029C38.3648 26.2958 38.473 26.5573 38.4729 26.8299C38.4728 27.1025 38.3644 27.364 38.1716 27.5567C37.9787 27.7494 37.7172 27.8576 37.4446 27.8575C37.172 27.8574 36.9105 27.749 36.7178 27.5562C35.5975 26.4349 33.8771 25.9354 32.1021 26.0042V26.0053Z" fill="white"/>
<path fill-rule="evenodd" clip-rule="evenodd" d="M42.5729 40.9778C44.6108 38.5696 45.7269 35.5158 45.722 32.361C45.722 24.9816 39.7404 19 32.361 19C24.9816 19 19 24.9816 19 32.361C19 39.7404 24.9816 45.722 32.361 45.722C35.6447 45.722 38.651 44.538 40.9778 42.5729L40.5832 44.8423L48.3059 52.5649L52.5649 48.3059L44.8423 40.5832L42.5729 40.9778ZM32.361 42.6387C38.0374 42.6387 42.6387 38.0374 42.6387 32.361C42.6387 26.6846 38.0374 22.0833 32.361 22.0833C26.6846 22.0833 22.0833 26.6846 22.0833 32.361C22.0833 38.0374 26.6846 42.6387 32.361 42.6387Z" fill="white"/>
<path d="M49.7598 54.0181L54.0188 49.759L55.4125 51.1527C56.1967 51.9369 56.1967 53.2082 55.4125 53.9914L53.9921 55.4118C53.2079 56.196 51.9366 56.196 51.1534 55.4118L49.7598 54.0181Z" fill="white"/>
</svg>
