
<svg width="160" height="65" fill="none" xmlns="http://www.w3.org/2000/svg"><path fill-rule="evenodd" clip-rule="evenodd" d="M50.536 0h.305l-.646 3.047c.257-.376.574-.675.95-.896.377-.227.753-.34 1.13-.34.239 0 .436.047.591.143a.875.875 0 0 1 .35.421c.077.18.116.4.116.663 0 .126-.009.263-.027.412a3.44 3.44 0 0 1-.071.457l-.556 2.635h-.305l.547-2.599c.03-.149.054-.29.072-.42.018-.138.027-.264.027-.377 0-.347-.075-.607-.225-.78-.143-.18-.358-.269-.645-.269-.257 0-.52.069-.788.206a2.682 2.682 0 0 0-.744.547 2.74 2.74 0 0 0-.547.78l-.618 2.912h-.305L50.536 0ZM20.209.18h-1.98l-1.354 6.362h1.98a3.503 3.503 0 0 0 2.6-1.12c.328-.358.582-.777.761-1.255.18-.478.27-.997.27-1.559 0-.46-.081-.872-.243-1.237a1.95 1.95 0 0 0-.744-.87C21.165.288 20.735.18 20.21.18Zm.072 5.789c-.4.19-.855.287-1.363.287h-1.676L18.48.466h1.667c.448 0 .822.096 1.12.287.3.185.523.442.673.77.155.33.233.709.233 1.139 0 .478-.075.932-.224 1.362-.15.424-.365.807-.646 1.147-.28.335-.621.6-1.021.798Zm4.244-4.087h-.296l-.986 4.66h.305l.618-2.93c.21-.436.493-.78.851-1.03.359-.258.741-.395 1.148-.413l.062-.278a.377.377 0 0 0-.09-.009.604.604 0 0 0-.098.009c-.317.024-.63.137-.94.34-.312.198-.586.476-.825.834l.25-1.183Zm3.627 4.75c-.382 0-.702-.087-.959-.26a1.629 1.629 0 0 1-.583-.699 2.497 2.497 0 0 1-.188-.977c0-.406.072-.783.215-1.13.15-.346.35-.65.6-.913a2.63 2.63 0 0 1 .861-.619c.323-.149.655-.224.995-.224.382 0 .702.09.959.27.257.172.448.408.573.707.126.293.189.619.189.977a2.9 2.9 0 0 1-.807 2.034 2.709 2.709 0 0 1-.851.619 2.405 2.405 0 0 1-1.004.215Zm.054-.287c.293 0 .576-.063.851-.188.275-.126.52-.305.735-.538a2.6 2.6 0 0 0 .52-.806c.131-.311.197-.643.197-.995 0-.317-.057-.604-.17-.86a1.415 1.415 0 0 0-.484-.628c-.215-.155-.487-.233-.816-.233-.293 0-.576.066-.851.197a2.326 2.326 0 0 0-.744.547 2.796 2.796 0 0 0-.52.816 2.587 2.587 0 0 0-.188.994c0 .317.054.604.161.86.108.258.272.46.493.61.221.15.493.224.816.224Zm4.798-4.463h-.286l-.986 4.66h.304l.619-2.912c.143-.293.334-.553.573-.78a2.84 2.84 0 0 1 .78-.547c.28-.137.553-.206.816-.206.263 0 .46.078.591.233.132.155.197.394.197.717 0 .126-.009.263-.027.412a3.39 3.39 0 0 1-.08.484l-.547 2.6h.305l.555-2.636c.036-.185.063-.358.081-.52.024-.16.036-.31.036-.447 0-.251-.036-.46-.108-.628a.717.717 0 0 0-.322-.376 1.093 1.093 0 0 0-.556-.126c-.263 0-.532.054-.806.162a3.016 3.016 0 0 0-1.38 1.075l.241-1.165Zm5.905 4.75a1.63 1.63 0 0 1-.94-.269 1.784 1.784 0 0 1-.61-.717 2.34 2.34 0 0 1-.224-.986 2.68 2.68 0 0 1 .17-1.04c.126-.34.305-.645.538-.913.233-.275.508-.493.824-.655a2.311 2.311 0 0 1 1.049-.242c.275 0 .526.048.753.144.227.09.41.23.547.421.137.185.206.421.206.708.018.472-.17.804-.565.995-.388.185-.983.278-1.783.278-.227 0-.466-.003-.717-.01-.211-.01-.444-.024-.697-.042-.01.092-.013.184-.011.276.006.334.068.639.188.914.12.269.293.484.52.645.227.155.502.233.824.233.377 0 .708-.09.995-.269.287-.185.51-.43.672-.735l.278.08a2.263 2.263 0 0 1-.484.628c-.197.174-.424.311-.681.413-.257.095-.54.143-.852.143Zm-1.308-2.93a2.563 2.563 0 0 0-.1.346l.718.039c.24.006.466.009.681.009.514 0 .92-.036 1.22-.108.298-.078.51-.191.636-.34a.766.766 0 0 0 .17-.556c0-.245-.063-.44-.188-.583a1.056 1.056 0 0 0-.475-.322 1.6 1.6 0 0 0-.583-.108c-.322 0-.624.075-.905.224-.275.15-.514.347-.717.592-.197.239-.35.508-.457.806Zm7.512 2.75c.275.12.586.18.932.18.383 0 .72-.06 1.013-.18.299-.119.532-.295.7-.528.172-.233.259-.51.259-.834 0-.215-.06-.385-.18-.51a1.223 1.223 0 0 0-.51-.314 8.103 8.103 0 0 0-.78-.251c-.346-.09-.606-.18-.78-.269-.173-.09-.26-.245-.26-.466 0-.28.075-.508.225-.681.155-.18.35-.31.582-.394.24-.084.481-.126.726-.126.275 0 .52.048.735.144.221.09.373.224.457.403l.224-.152c-.078-.192-.233-.35-.466-.475-.233-.126-.529-.189-.887-.189-.34 0-.657.06-.95.18a1.55 1.55 0 0 0-.69.52c-.174.226-.26.51-.26.85 0 .192.045.344.134.458a.997.997 0 0 0 .421.26c.186.065.41.134.673.206.406.107.72.218.94.331.222.108.332.29.332.547 0 .24-.071.451-.215.636-.137.18-.328.32-.573.422a2.279 2.279 0 0 1-.834.143c-.299 0-.565-.054-.798-.161a1.99 1.99 0 0 1-.627-.511l-.206.206c.173.245.394.43.663.556Zm10.172-.08c.257.173.577.26.959.26.352 0 .687-.072 1.004-.215.322-.15.606-.356.851-.619a2.9 2.9 0 0 0 .807-2.034c0-.358-.063-.684-.189-.977a1.562 1.562 0 0 0-.573-.708c-.257-.179-.577-.269-.959-.269-.34 0-.672.075-.995.224a2.63 2.63 0 0 0-.86.619c-.251.263-.451.567-.6.914a2.926 2.926 0 0 0-.216 1.13c0 .352.063.677.188.976.132.293.326.526.583.699Zm1.864-.215a2.029 2.029 0 0 1-.851.188c-.323 0-.595-.075-.816-.224a1.343 1.343 0 0 1-.493-.61 2.209 2.209 0 0 1-.161-.86c0-.358.063-.69.188-.994.132-.311.305-.583.52-.816.221-.239.469-.421.744-.547.275-.131.558-.197.851-.197.329 0 .6.078.816.233.215.155.376.365.484.627.113.257.17.544.17.86 0 .353-.066.685-.197.996a2.597 2.597 0 0 1-.52.806c-.215.233-.46.412-.735.538Zm4.52.475c-.381 0-.701-.087-.958-.26a1.628 1.628 0 0 1-.583-.699 2.497 2.497 0 0 1-.188-.977c0-.406.072-.783.215-1.13.15-.346.35-.65.6-.913a2.63 2.63 0 0 1 .861-.619c.323-.149.654-.224.995-.224.382 0 .702.09.959.27.257.172.448.408.573.707.126.293.189.619.189.977a2.9 2.9 0 0 1-.807 2.034 2.711 2.711 0 0 1-.851.619 2.405 2.405 0 0 1-1.004.215Zm.055-.287c.292 0 .576-.063.851-.188.275-.126.52-.305.735-.538.221-.233.394-.502.52-.806.131-.311.197-.643.197-.995 0-.317-.057-.604-.17-.86a1.415 1.415 0 0 0-.484-.628c-.215-.155-.487-.233-.816-.233-.293 0-.577.066-.851.197a2.327 2.327 0 0 0-.744.547 2.8 2.8 0 0 0-.52.816 2.589 2.589 0 0 0-.188.994c0 .317.054.604.161.86.108.258.272.46.493.61.221.15.493.224.816.224Zm3.743-.439v.09c0 .185.062.331.188.439a.782.782 0 0 0 .493.152c.155 0 .298-.018.43-.054.137-.041.25-.083.34-.125.09-.048.14-.075.153-.08l-.054-.252a.698.698 0 0 1-.134.072c-.072.03-.162.063-.27.099a1.1 1.1 0 0 1-.349.053.538.538 0 0 1-.331-.107.403.403 0 0 1-.144-.332c0-.036.006-.086.018-.152.012-.066.033-.167.063-.305l.699-3.253h1.049l.062-.269h-1.048l.34-1.604h-.304l-.341 1.604h-.636l-.054.269h.627l-.78 3.665-.017.09Zm3.674-4.024h.304l-.985 4.66h-.305l.986-4.66ZM69.544 0h.305l-.162.753h-.304L69.544 0Zm1.957 1.882h-.286l-.986 4.66h.305l.618-2.912c.143-.293.335-.553.573-.78a2.84 2.84 0 0 1 .78-.547c.281-.137.553-.206.816-.206.263 0 .46.078.591.233.132.155.197.394.197.717 0 .126-.009.263-.026.412a3.406 3.406 0 0 1-.081.484l-.547 2.6h.305l.555-2.636c.036-.185.063-.358.081-.52.024-.16.036-.31.036-.447 0-.251-.036-.46-.108-.628a.717.717 0 0 0-.322-.376 1.093 1.093 0 0 0-.556-.126c-.263 0-.532.054-.806.162a3.016 3.016 0 0 0-1.38 1.075l.241-1.165Zm5.332 6.659c-.496 0-.881-.102-1.156-.305a1.548 1.548 0 0 1-.556-.789l.251-.125c.12.329.305.568.556.717.25.155.57.233.959.233.31 0 .606-.06.887-.18.287-.119.532-.298.735-.537.209-.233.35-.523.421-.87l.242-1.093a2.926 2.926 0 0 1-.896.744c-.353.191-.693.287-1.022.287-.346 0-.645-.093-.896-.278a1.8 1.8 0 0 1-.565-.726 2.355 2.355 0 0 1-.197-.959c0-.352.069-.696.206-1.03.144-.34.338-.646.583-.914.245-.275.526-.493.842-.655.317-.167.648-.25.995-.25.394 0 .711.11.95.33.245.222.44.488.583.799l.224-1.058h.277l-1.021 4.804a2.118 2.118 0 0 1-.502 1.03c-.245.281-.535.487-.87.619a2.69 2.69 0 0 1-1.03.206Zm.538-2.196c.197 0 .397-.039.6-.116a2.44 2.44 0 0 0 .574-.314c.185-.131.343-.275.475-.43A1.55 1.55 0 0 0 79.298 5l.34-1.604a1.484 1.484 0 0 0-.78-1.13 1.337 1.337 0 0 0-.663-.17 1.84 1.84 0 0 0-.905.233c-.275.15-.517.35-.726.6a3.18 3.18 0 0 0-.484.825 2.37 2.37 0 0 0-.17.86c0 .311.06.598.18.86.119.264.286.476.501.637.221.155.48.233.78.233Zm7.062.099c.227.125.487.188.78.188.37 0 .731-.096 1.084-.287.352-.197.678-.466.977-.806l.025-.03.71 1.033h.412l-.91-1.302a6.047 6.047 0 0 0 .962-2.157h.88l.054-.269h-1.175a6.084 6.084 0 0 1-.439 1.39c-.13.29-.279.557-.446.802l-1.525-2.183a6.697 6.697 0 0 1-.323-.51 2.05 2.05 0 0 1-.18-.404.976.976 0 0 1 .152-.923c.139-.191.315-.344.53-.457.221-.12.457-.18.708-.18.287 0 .54.078.762.234.227.155.394.37.502.645l.206-.188a1.493 1.493 0 0 0-.34-.502 1.325 1.325 0 0 0-.485-.323 1.537 1.537 0 0 0-.6-.116c-.31 0-.604.071-.879.215-.268.137-.486.32-.654.546a1.24 1.24 0 0 0-.25.753c0 .132.023.272.071.421.054.144.138.314.251.511.06.102.132.217.215.344a8.07 8.07 0 0 0-.708.463c-.245.18-.451.364-.618.555-.162.192-.281.392-.359.6a1.766 1.766 0 0 0-.116.637c0 .293.062.553.188.78.131.221.31.394.538.52Zm1.22-3.334c-.324.19-.6.382-.826.573a2.486 2.486 0 0 0-.6.682 1.508 1.508 0 0 0-.198.752c0 .365.114.664.34.897.234.227.533.34.897.34.329 0 .648-.09.96-.269a3.208 3.208 0 0 0 .918-.802l-1.394-2.03-.097-.143ZM95.863.18h.27l1.237 6.362h-.332l-.421-2.195h-3.012l-1.353 2.195h-.34L95.864.18Zm.718 3.898L95.918.574l-2.17 3.504h2.833Zm3.284-2.196h-.296l-.986 4.66h.305l.618-2.93c.21-.436.493-.78.852-1.03a2.098 2.098 0 0 1 1.147-.413l.063-.278a.38.38 0 0 0-.09-.009.609.609 0 0 0-.099.009 1.99 1.99 0 0 0-.941.34 2.82 2.82 0 0 0-.824.834l.25-1.183Zm3.627 4.75c-.346 0-.651-.087-.914-.26a1.806 1.806 0 0 1-.6-.717 2.343 2.343 0 0 1-.206-.995c0-.388.074-.753.224-1.093a2.937 2.937 0 0 1 1.469-1.524 2.388 2.388 0 0 1 1.031-.233c.388 0 .714.096.977.287.263.185.433.442.511.77l-.323.108a1.176 1.176 0 0 0-.43-.645 1.212 1.212 0 0 0-.744-.233c-.305 0-.6.066-.887.197a2.555 2.555 0 0 0-.771.547 2.8 2.8 0 0 0-.547.807 2.403 2.403 0 0 0-.197.959c0 .322.06.615.18.878.125.263.295.472.51.627.215.155.463.233.744.233.221 0 .442-.042.663-.125a2.69 2.69 0 0 0 .619-.34c.185-.144.313-.297.385-.458l.287.09c-.114.215-.278.409-.493.582a2.478 2.478 0 0 1-.708.395 2.222 2.222 0 0 1-.78.143ZM108.337 0h-.305l-1.389 6.542h.305l.618-2.912c.138-.293.32-.553.547-.78.227-.233.475-.415.744-.547.269-.137.532-.206.789-.206.286 0 .501.09.645.269.149.173.224.433.224.78 0 .113-.009.239-.027.376a6.905 6.905 0 0 1-.072.421l-.546 2.6h.304l.556-2.636c.036-.16.06-.313.072-.457.018-.149.027-.286.027-.412 0-.263-.039-.484-.117-.663a.874.874 0 0 0-.35-.421 1.11 1.11 0 0 0-.591-.144c-.376 0-.753.114-1.129.34-.377.222-.693.52-.95.897L108.337 0Zm4.543 1.882h.305l-.986 4.66h-.305l.986-4.66ZM113.283 0h.305l-.161.753h-.305l.161-.753Zm.981 5.906v.09c0 .185.062.331.188.439a.782.782 0 0 0 .493.152c.155 0 .299-.018.43-.054a2.69 2.69 0 0 0 .341-.125c.089-.048.14-.075.152-.08l-.054-.252a.713.713 0 0 1-.134.072c-.072.03-.162.063-.269.099a1.102 1.102 0 0 1-.35.053.536.536 0 0 1-.331-.107.402.402 0 0 1-.144-.332c0-.036.006-.086.018-.152.012-.066.033-.167.063-.305l.699-3.253h1.049l.062-.269h-1.048l.34-1.604h-.304l-.341 1.604h-.636l-.054.269h.627l-.779 3.665-.018.09Zm4.51.726c-.365 0-.678-.09-.941-.269a1.789 1.789 0 0 1-.61-.717 2.347 2.347 0 0 1-.224-.986 2.668 2.668 0 0 1 .171-1.04c.125-.34.304-.645.537-.913.233-.275.508-.493.825-.655a2.312 2.312 0 0 1 1.048-.242c.275 0 .526.048.753.144.227.09.41.23.547.421.137.185.206.421.206.708.018.472-.17.804-.565.995-.388.185-.982.278-1.783.278-.227 0-.466-.003-.717-.01-.211-.01-.443-.024-.697-.042a2.314 2.314 0 0 0-.011.276c.006.334.069.639.188.914.12.269.293.484.52.645.227.155.502.233.825.233.376 0 .708-.09.994-.269.287-.185.511-.43.673-.735l.277.08a2.237 2.237 0 0 1-.484.628c-.197.174-.424.311-.681.413-.257.095-.54.143-.851.143Zm-1.309-2.93a2.515 2.515 0 0 0-.1.346l.719.039c.239.006.466.009.681.009.514 0 .92-.036 1.219-.108.299-.078.511-.191.636-.34a.764.764 0 0 0 .17-.556c0-.245-.062-.44-.188-.583a1.054 1.054 0 0 0-.475-.322 1.596 1.596 0 0 0-.582-.108c-.323 0-.625.075-.906.224-.274.15-.513.347-.717.592a2.7 2.7 0 0 0-.457.806Zm5.416 2.67c.263.173.568.26.914.26.263 0 .523-.048.78-.143.263-.096.499-.227.708-.395.215-.173.379-.367.493-.582l-.287-.09c-.072.161-.2.314-.385.457a2.69 2.69 0 0 1-.619.34 1.861 1.861 0 0 1-.663.126c-.281 0-.529-.078-.744-.233a1.607 1.607 0 0 1-.51-.627 2.09 2.09 0 0 1-.18-.878c0-.335.066-.655.197-.96a2.8 2.8 0 0 1 .547-.806c.227-.233.484-.415.771-.547.287-.131.582-.197.887-.197.287 0 .535.078.744.233.209.155.352.37.43.645l.323-.107a1.265 1.265 0 0 0-.511-.77c-.263-.192-.589-.288-.977-.288-.358 0-.702.078-1.031.233a2.937 2.937 0 0 0-1.469 1.524c-.15.34-.224.705-.224 1.093 0 .365.068.696.206.995.143.299.343.538.6.717Zm4.361-.376v-.09l.018-.09.78-3.665h-.628l.054-.269h.636l.341-1.604h.305l-.341 1.604h1.049l-.063.269h-1.049l-.699 3.253a7.22 7.22 0 0 0-.062.305.913.913 0 0 0-.018.152c0 .144.047.254.143.332a.539.539 0 0 0 .332.107c.125 0 .242-.018.349-.053a4 4 0 0 0 .269-.099.678.678 0 0 0 .134-.072l.054.251-.152.08c-.09.043-.203.085-.341.126a1.63 1.63 0 0 1-.43.054.784.784 0 0 1-.493-.152.55.55 0 0 1-.188-.44Zm2.948-.6c0 .824.362 1.236 1.085 1.236.394 0 .785-.11 1.174-.332a3.11 3.11 0 0 0 .994-.905l-.116.565a6.892 6.892 0 0 0-.045.224.537.537 0 0 0-.009.08.29.29 0 0 0 .054.18.274.274 0 0 0 .161.09.2.2 0 0 0 .063.008h.081l.071-.286c-.089 0-.134-.045-.134-.135 0-.012.006-.042.018-.09l.036-.16.842-3.989h-.305l-.627 2.958a2.833 2.833 0 0 1-.574.788 2.732 2.732 0 0 1-.752.529 1.895 1.895 0 0 1-.807.188c-.597 0-.896-.34-.896-1.022 0-.239.036-.513.107-.824l.556-2.617h-.305l-.564 2.653a4.918 4.918 0 0 0-.081.457 3.248 3.248 0 0 0-.027.403Zm6.065-3.514h.295l-.251 1.183a2.81 2.81 0 0 1 .825-.833c.311-.204.624-.317.941-.341a.607.607 0 0 1 .098-.009.38.38 0 0 1 .09.009l-.063.278a2.1 2.1 0 0 0-1.147.412 2.6 2.6 0 0 0-.851 1.03l-.619 2.931h-.304l.986-4.66Zm3.062 4.481c.263.18.577.269.941.269.311 0 .595-.048.852-.143.257-.102.484-.24.681-.413.197-.179.358-.388.484-.627l-.278-.08c-.161.304-.385.549-.672.734a1.84 1.84 0 0 1-.995.269c-.323 0-.597-.078-.824-.233a1.538 1.538 0 0 1-.52-.645 2.368 2.368 0 0 1-.188-.914 2.121 2.121 0 0 1 .011-.276c.253.018.485.033.697.043.251.006.489.009.717.009.8 0 1.395-.093 1.783-.278.394-.191.583-.523.565-.995 0-.287-.069-.523-.207-.708a1.196 1.196 0 0 0-.546-.421 1.921 1.921 0 0 0-.753-.144c-.376 0-.726.081-1.049.242-.316.162-.591.38-.824.655a2.94 2.94 0 0 0-.538.914 2.686 2.686 0 0 0-.17 1.04c.006.358.081.686.224.985.143.299.346.538.609.717Zm-.468-2.315a2.52 2.52 0 0 1 .101-.347c.107-.298.26-.567.457-.806.203-.245.442-.442.717-.592.281-.15.582-.224.905-.224.203 0 .397.036.583.108.191.065.349.173.475.322.125.144.188.338.188.583a.768.768 0 0 1-.17.556c-.126.149-.338.262-.637.34-.298.072-.705.108-1.219.108-.215 0-.442-.003-.681-.01l-.719-.038ZM44.446 17.613 34.92 49.75h-5.967L22.2 25.427 15.03 49.75l-5.92.046L0 17.613h5.596l6.66 26.171 7.215-26.17h5.92l6.706 26.032 6.707-26.033h5.642Zm16.141 32.145c-2.924 0-5.622-.678-8.095-2.034-2.442-1.387-4.386-3.3-5.833-5.742-1.417-2.471-2.126-5.245-2.126-8.319 0-3.074.709-5.832 2.126-8.273 1.447-2.442 3.391-4.34 5.833-5.697 2.473-1.387 5.17-2.08 8.095-2.08 2.955 0 5.653.693 8.095 2.08a14.925 14.925 0 0 1 5.834 5.697c1.416 2.44 2.125 5.199 2.125 8.273 0 3.075-.709 5.848-2.126 8.319a15.248 15.248 0 0 1-5.833 5.742c-2.442 1.356-5.14 2.034-8.095 2.034Zm0-4.476c2.08 0 3.934-.467 5.563-1.401 1.627-.965 2.894-2.32 3.798-4.07.935-1.777 1.402-3.827 1.402-6.148 0-2.32-.467-4.355-1.402-6.103-.904-1.749-2.17-3.09-3.798-4.024-1.629-.935-3.483-1.402-5.563-1.402-2.08 0-3.934.467-5.562 1.402-1.628.934-2.91 2.275-3.844 4.024-.904 1.748-1.357 3.782-1.357 6.103 0 2.321.453 4.37 1.357 6.149.935 1.748 2.216 3.104 3.844 4.069 1.628.934 3.482 1.401 5.562 1.401Zm28.99-8.387 7.4 12.854h6.29l-7.955-13.317c2.529-.616 4.394-1.772 5.596-3.468 1.234-1.726 1.85-3.637 1.85-5.733 0-1.788-.431-3.407-1.295-4.855-.832-1.45-2.112-2.605-3.838-3.468-1.696-.863-3.777-1.295-6.244-1.295h-11.1V49.75h5.273V36.895h4.023Zm1.804-4.208h-5.827V21.913h5.827c2.004 0 3.5.478 4.486 1.434.987.924 1.48 2.22 1.48 3.884 0 1.664-.508 2.99-1.526 3.976-.987.987-2.467 1.48-4.44 1.48Zm22.929 12.808h13.227v4.254h-18.5V17.613h5.273v27.882Zm37.596-25.894c-2.559-1.325-5.55-1.988-8.972-1.988h-10.499V49.75h10.499c3.422 0 6.413-.632 8.972-1.896 2.59-1.294 4.579-3.144 5.967-5.548 1.418-2.405 2.127-5.24 2.127-8.508 0-3.268-.709-6.12-2.127-8.554-1.388-2.467-3.377-4.347-5.967-5.642Zm-.323 22.796c-2.005 2.035-4.888 3.052-8.649 3.052h-5.226V21.913h5.226c3.761 0 6.644 1.048 8.649 3.145 2.004 2.096 3.006 5.009 3.006 8.739 0 3.699-1.002 6.566-3.006 8.6Zm-41.358 17.536c0-.928.198-1.753.593-2.476a4.44 4.44 0 0 1 1.655-1.714c.709-.41 1.499-.615 2.373-.615 1.103 0 2.032.25 2.786.75.754.499 1.306 1.2 1.655 2.1h-.717a3.412 3.412 0 0 0-1.379-1.686c-.635-.42-1.416-.629-2.345-.629-.745 0-1.421.174-2.028.522a3.606 3.606 0 0 0-1.434 1.486c-.35.642-.524 1.397-.524 2.262 0 .857.174 1.606.524 2.249a3.738 3.738 0 0 0 1.434 1.472 4.003 4.003 0 0 0 2.028.523c.929 0 1.71-.206 2.345-.616a3.483 3.483 0 0 0 1.379-1.7h.717c-.349.901-.901 1.602-1.655 2.101-.754.5-1.683.75-2.786.75-.874 0-1.664-.2-2.373-.602a4.466 4.466 0 0 1-1.655-1.7c-.395-.732-.593-1.558-.593-2.477Zm-51.861 4.792c-.892 0-1.697-.2-2.414-.602a4.374 4.374 0 0 1-1.683-1.713c-.404-.732-.607-1.558-.607-2.477 0-.928.203-1.753.607-2.476a4.282 4.282 0 0 1 1.683-1.7c.717-.41 1.522-.616 2.414-.616.892 0 1.696.205 2.414.616a4.282 4.282 0 0 1 1.682 1.7c.405.723.607 1.548.607 2.476 0 .92-.202 1.745-.607 2.477a4.374 4.374 0 0 1-1.682 1.713c-.718.401-1.522.602-2.414.602Zm0-.535c.763 0 1.453-.174 2.069-.522a3.693 3.693 0 0 0 1.448-1.486c.359-.643.538-1.392.538-2.249 0-.865-.18-1.62-.538-2.262a3.693 3.693 0 0 0-1.448-1.486c-.616-.348-1.306-.522-2.07-.522-.762 0-1.452.174-2.068.522a3.786 3.786 0 0 0-1.462 1.486c-.359.642-.538 1.397-.538 2.262 0 .857.18 1.606.538 2.249a3.786 3.786 0 0 0 1.462 1.486c.616.348 1.306.522 2.069.522Zm-5.858-8.969-2.676 9.397h-.676l-2.648-8.46-2.69 8.46h-.648l-2.635-9.397h.662l2.318 8.554 2.662-8.554h.69l2.634 8.608 2.33-8.608h.677Zm16.143 5.395 2.482 4.002h.745l-2.538-4.056c.8-.107 1.407-.392 1.821-.856.423-.473.634-1.071.634-1.794 0-.812-.27-1.464-.813-1.954-.534-.491-1.338-.737-2.414-.737h-2.662v9.397h.62v-4.002h2.125Zm-.056-.509h-2.069v-4.35h2.042c1.72 0 2.58.718 2.58 2.155 0 .66-.212 1.191-.635 1.593-.423.401-1.062.602-1.918.602Zm7.823 4.003h3.6v.508h-4.22v-9.397h.62v8.889Zm12.707-7.644c-.883-.83-2.143-1.245-3.78-1.245h-2.717v9.397h2.717c1.637 0 2.897-.41 3.78-1.231.891-.821 1.337-1.973 1.337-3.454s-.445-2.637-1.337-3.467Zm-.442 6.546c-.763.732-1.876 1.098-3.338 1.098h-2.096v-8.38h2.096c1.462 0 2.575.37 3.338 1.111.763.74 1.145 1.771 1.145 3.092 0 1.312-.382 2.338-1.145 3.079Zm8.17 1.098h3.6v.508h-4.22v-9.397h.62v8.889Zm11.391 0h-3.6V55.22h-.621v9.397h4.221v-.508Z" fill="#fff"/></svg>