<svg width="120" height="36" viewBox="0 0 120 36" fill="none" xmlns="http://www.w3.org/2000/svg">
<path d="M33.3346 0L26.189 24.1078H21.7143L16.65 5.86218L11.2734 24.1078L6.83343 24.1425L0 0H4.19718L9.19217 19.6331L14.6034 0H19.0434L24.0731 19.529L29.1028 0H33.3346Z" fill="white"/>
<path d="M45.4408 24.1147C43.2475 24.1147 41.2238 23.606 39.3697 22.5885C37.5382 21.5483 36.0798 20.1125 34.9945 18.281C33.9318 16.4269 33.4004 14.3467 33.4004 12.0404C33.4004 9.73406 33.9318 7.66515 34.9945 5.83366C36.0798 4.00216 37.5382 2.57766 39.3697 1.56016C41.2238 0.520055 43.2475 0 45.4408 0C47.6567 0 49.6804 0.520055 51.5119 1.56016C53.366 2.57766 54.8244 4.00216 55.8871 5.83366C56.9498 7.66515 57.4812 9.73406 57.4812 12.0404C57.4812 14.3467 56.9498 16.4269 55.8871 18.281C54.8244 20.1125 53.366 21.5483 51.5119 22.5885C49.6804 23.606 47.6567 24.1147 45.4408 24.1147ZM45.4408 20.757C47.0009 20.757 48.3915 20.4065 49.6125 19.7055C50.8335 18.982 51.7832 17.9645 52.4615 16.6531C53.1625 15.319 53.5129 13.7814 53.5129 12.0404C53.5129 10.2993 53.1625 8.7731 52.4615 7.46165C51.7832 6.15021 50.8335 5.14402 49.6125 4.44308C48.3915 3.74213 47.0009 3.39166 45.4408 3.39166C43.8806 3.39166 42.49 3.74213 41.269 4.44308C40.048 5.14402 39.0871 6.15021 38.3861 7.46165C37.7078 8.7731 37.3686 10.2993 37.3686 12.0404C37.3686 13.7814 37.7078 15.319 38.3861 16.6531C39.0871 17.9645 40.048 18.982 41.269 19.7055C42.49 20.4065 43.8806 20.757 45.4408 20.757Z" fill="white"/>
<path d="M72.7331 24.1078L67.1831 14.4647H64.1653V24.1078H60.2109V0H68.5359C70.3859 0 71.9469 0.32375 73.2187 0.971249C74.5137 1.61875 75.4734 2.48593 76.0978 3.57281C76.7453 4.65968 77.069 5.87374 77.069 7.21499C77.069 8.78748 76.6065 10.2212 75.6815 11.5162C74.7797 12.7881 73.3806 13.6553 71.4844 14.1178L77.4506 24.1078H72.7331ZM64.1653 11.3081H68.5359C70.0159 11.3081 71.1259 10.9381 71.8659 10.1981C72.629 9.45811 73.0106 8.46373 73.0106 7.21499C73.0106 5.96624 72.6406 4.99499 71.9006 4.30124C71.1606 3.58437 70.039 3.22593 68.5359 3.22593H64.1653V11.3081Z" fill="white"/>
<path d="M85.7327 20.9165H95.6533V24.1078H81.7783V0H85.7327V20.9165Z" fill="white"/>
<path d="M107.2 0C109.767 0 112.01 0.497187 113.93 1.49156C115.872 2.46281 117.364 3.87343 118.404 5.72343C119.468 7.5503 120 9.68936 120 12.1406C120 14.5918 119.468 16.7193 118.404 18.5231C117.364 20.3268 115.872 21.7143 113.93 22.6856C112.01 23.6337 109.767 24.1078 107.2 24.1078H99.3262V0H107.2ZM107.2 20.8818C110.021 20.8818 112.184 20.1187 113.687 18.5925C115.19 17.0662 115.941 14.9156 115.941 12.1406C115.941 9.34248 115.19 7.15718 113.687 5.58468C112.184 4.01218 110.021 3.22593 107.2 3.22593H103.281V20.8818H107.2Z" fill="white"/>
<path d="M39.3798 28.2129L37.3729 35.2622H36.866L34.8797 28.9158L32.8625 35.2622H32.3763L30.4004 28.2129H30.8969L32.6349 34.6296L34.6315 28.2129H35.1487L37.1246 34.6698L38.8729 28.2129H39.3798Z" fill="white"/>
<path d="M43.7734 35.3426C43.1044 35.3426 42.501 35.192 41.963 34.8907C41.4251 34.5827 41.0044 34.1543 40.7009 33.6053C40.3975 33.0564 40.2458 32.4371 40.2458 31.7476C40.2458 31.0514 40.3975 30.4321 40.7009 29.8899C41.0044 29.3409 41.4251 28.9158 41.963 28.6145C42.501 28.3066 43.1044 28.1526 43.7734 28.1526C44.4424 28.1526 45.0458 28.3066 45.5838 28.6145C46.1217 28.9158 46.5424 29.3409 46.8458 29.8899C47.1493 30.4321 47.301 31.0514 47.301 31.7476C47.301 32.4371 47.1493 33.0564 46.8458 33.6053C46.5424 34.1543 46.1217 34.5827 45.5838 34.8907C45.0458 35.192 44.4424 35.3426 43.7734 35.3426ZM43.7734 34.9409C44.3458 34.9409 44.8631 34.8104 45.3251 34.5493C45.7872 34.2882 46.1493 33.9166 46.4114 33.4346C46.6803 32.9526 46.8148 32.3903 46.8148 31.7476C46.8148 31.0982 46.6803 30.5325 46.4114 30.0505C46.1493 29.5685 45.7872 29.197 45.3251 28.9359C44.8631 28.6748 44.3458 28.5443 43.7734 28.5443C43.201 28.5443 42.6837 28.6748 42.2217 28.9359C41.7596 29.197 41.3941 29.5685 41.1251 30.0505C40.8561 30.5325 40.7216 31.0982 40.7216 31.7476C40.7216 32.3903 40.8561 32.9526 41.1251 33.4346C41.3941 33.9166 41.7596 34.2882 42.2217 34.5493C42.6837 34.8104 43.201 34.9409 43.7734 34.9409Z" fill="white"/>
<path d="M53.3491 35.2622L51.487 32.2597H51.4456H49.8939V35.2622H49.4283V28.2129H51.4249C52.2318 28.2129 52.8353 28.397 53.2353 28.7652C53.6422 29.1334 53.8456 29.6221 53.8456 30.2313C53.8456 30.7735 53.687 31.2221 53.3697 31.5769C53.0594 31.925 52.6042 32.1392 52.0042 32.2196L53.9077 35.2622H53.3491ZM49.8939 31.8781H51.4456C52.087 31.8781 52.5663 31.7275 52.8835 31.4263C53.2008 31.125 53.3594 30.7267 53.3594 30.2313C53.3594 29.1535 52.7146 28.6145 51.4249 28.6145H49.8939V31.8781Z" fill="white"/>
<path d="M57.3127 34.8807H60.0127V35.2622H56.8471V28.2129H57.3127V34.8807Z" fill="white"/>
<path d="M64.0079 28.2129C65.2355 28.2129 66.1804 28.5242 66.8424 29.1468C67.5114 29.7694 67.8459 30.6363 67.8459 31.7476C67.8459 32.8589 67.5114 33.7225 66.8424 34.3384C66.1804 34.9543 65.2355 35.2622 64.0079 35.2622H61.97V28.2129H64.0079ZM64.0079 34.8807C65.1045 34.8807 65.939 34.6062 66.5114 34.0572C67.0838 33.5016 67.37 32.7317 67.37 31.7476C67.37 30.7568 67.0838 29.9836 66.5114 29.4279C65.939 28.8723 65.1045 28.5945 64.0079 28.5945H62.4355V34.8807H64.0079Z" fill="white"/>
<path d="M72.639 34.8807H75.339V35.2622H72.1735V28.2129H72.639V34.8807Z" fill="white"/>
<path d="M78.4818 34.8807H81.1819V35.2622H78.0163V28.2129H78.4818V34.8807Z" fill="white"/>
<path d="M82.6695 31.7476C82.6695 31.0514 82.8178 30.4321 83.1143 29.8899C83.4178 29.3409 83.8316 28.9125 84.3557 28.6045C84.8867 28.2966 85.4798 28.1426 86.135 28.1426C86.9626 28.1426 87.6592 28.33 88.2247 28.7049C88.7902 29.0798 89.204 29.6053 89.4661 30.2815H88.9282C88.7213 29.7459 88.3764 29.3242 87.8937 29.0162C87.4178 28.7016 86.8316 28.5443 86.135 28.5443C85.5764 28.5443 85.0695 28.6748 84.6143 28.9359C84.1591 29.1903 83.8005 29.5618 83.5384 30.0505C83.2764 30.5325 83.1453 31.0982 83.1453 31.7476C83.1453 32.3903 83.2764 32.9526 83.5384 33.4346C83.8005 33.9099 84.1591 34.2781 84.6143 34.5392C85.0695 34.8003 85.5764 34.9309 86.135 34.9309C86.8316 34.9309 87.4178 34.7769 87.8937 34.4689C88.3764 34.1543 88.7213 33.7292 88.9282 33.1936H89.4661C89.204 33.8698 88.7902 34.3953 88.2247 34.7702C87.6592 35.1451 86.9626 35.3325 86.135 35.3325C85.4798 35.3325 84.8867 35.1819 84.3557 34.8807C83.8316 34.5727 83.4178 34.1476 83.1143 33.6053C82.8178 33.0564 82.6695 32.4371 82.6695 31.7476Z" fill="white"/>
</svg>
