<svg width="564" height="289" viewBox="0 0 564 289" fill="none" xmlns="http://www.w3.org/2000/svg">
<path fill-rule="evenodd" clip-rule="evenodd" d="M73.8535 0H72.4835L66.2376 29.4161H67.6076L70.3881 16.3199C71.006 15.0036 71.8253 13.835 72.8462 12.8141C73.867 11.7664 74.9818 10.9471 76.1907 10.3561C77.3996 9.73821 78.5816 9.42928 79.7368 9.42928C81.0262 9.42928 81.9934 9.83224 82.6381 10.6382C83.3097 11.4172 83.6455 12.5858 83.6455 14.1439C83.6455 14.6543 83.6052 15.2185 83.5246 15.8364C83.444 16.4274 83.3366 17.0587 83.2022 17.7303L80.7442 29.4161H82.1143L84.6126 17.5691C84.7738 16.8438 84.8813 16.1587 84.935 15.514C85.0156 14.8424 85.0559 14.2245 85.0559 13.6604C85.0559 12.4783 84.8813 11.4844 84.532 10.6785C84.1828 9.84567 83.6589 9.21437 82.9605 8.78454C82.262 8.35472 81.3755 8.1398 80.3009 8.1398C78.6085 8.1398 76.9161 8.65022 75.2237 9.67105C73.5312 10.665 72.1074 12.0082 70.9523 13.7007L73.8535 0ZM18.9794 0.80592H17.7706L0 29.4161H1.53129L7.61598 19.5436H21.1554L23.0493 29.4161H24.5403L18.9794 0.80592ZM18.0123 2.57895L20.9943 18.3347H8.26071L18.0123 2.57895ZM35.7603 8.46217H34.4305L29.9979 29.4161H31.368L34.1484 16.2393C35.0887 14.2782 36.3647 12.7336 37.9765 11.6053C39.5884 10.4501 41.3077 9.83224 43.1344 9.75165L43.4165 8.50247C43.309 8.4756 43.1747 8.46217 43.0136 8.46217C42.8792 8.46217 42.7315 8.4756 42.5703 8.50247C41.1465 8.60992 39.7361 9.12034 38.3392 10.0337C36.9423 10.9202 35.7066 12.1694 34.632 13.7813L35.7603 8.46217ZM52.0704 29.8191C50.5123 29.8191 49.1422 29.4296 47.9602 28.6505C46.805 27.8446 45.9051 26.77 45.2604 25.4268C44.6425 24.0836 44.3335 22.5927 44.3335 20.954C44.3335 19.2078 44.6693 17.5691 45.3409 16.0378C46.0125 14.5066 46.9125 13.1499 48.0408 11.9679C49.1959 10.7859 50.4988 9.8591 51.9495 9.1875C53.427 8.48904 54.9717 8.1398 56.5835 8.1398C58.3297 8.1398 59.7938 8.56963 60.9758 9.42928C62.1578 10.2621 62.9235 11.4172 63.2727 12.8947L61.822 13.3783C61.4728 12.1425 60.8281 11.1754 59.8878 10.477C58.9476 9.77851 57.8327 9.42928 56.5432 9.42928C55.1732 9.42928 53.8434 9.72478 52.5539 10.3158C51.2645 10.9068 50.1093 11.7262 49.0884 12.7739C48.0676 13.8215 47.2483 15.0304 46.6304 16.4005C46.0394 17.7706 45.7439 19.2078 45.7439 20.7122C45.7439 22.1628 46.0125 23.4792 46.5498 24.6612C47.114 25.8432 47.8796 26.7834 48.8467 27.4819C49.8138 28.1804 50.9287 28.5296 52.1913 28.5296C53.1852 28.5296 54.1792 28.3416 55.1732 27.9655C56.194 27.5625 57.1208 27.0521 57.9536 26.4342C58.7864 25.7895 59.364 25.1044 59.6864 24.3791L60.9758 24.7821C60.4654 25.7492 59.7266 26.6223 58.7595 27.4013C57.8193 28.1535 56.7582 28.7445 55.5761 29.1743C54.421 29.6042 53.2524 29.8191 52.0704 29.8191ZM94.2795 8.46217H95.6496L91.217 29.4161H89.847L94.2795 8.46217ZM96.0929 0H97.4629L96.7376 3.38487H95.3676L96.0929 0ZM100.502 26.5551V26.9581C100.502 27.7908 100.784 28.449 101.348 28.9326C101.939 29.3893 102.678 29.6176 103.564 29.6176C104.263 29.6176 104.907 29.537 105.498 29.3758C106.116 29.1878 106.627 28.9997 107.029 28.8117C107.432 28.5968 107.661 28.4759 107.715 28.449L107.473 27.3207C107.419 27.3745 107.218 27.4819 106.868 27.6431C106.546 27.7774 106.143 27.9252 105.659 28.0864C105.176 28.2475 104.652 28.3281 104.088 28.3281C103.524 28.3281 103.027 28.1669 102.597 27.8446C102.167 27.4953 101.952 26.9984 101.952 26.3536C101.952 26.1924 101.979 25.9641 102.033 25.6686C102.087 25.3731 102.181 24.9164 102.315 24.2985L105.458 9.67105H110.173L110.455 8.46217H105.74L107.271 1.24918H105.901L104.37 8.46217H101.509L101.267 9.67105H104.088L100.582 26.1521L100.502 26.5551ZM120.78 29.8191C119.142 29.8191 117.731 29.4161 116.549 28.6102C115.367 27.8043 114.454 26.7297 113.809 25.3865C113.165 24.0433 112.829 22.5658 112.802 20.954C112.748 19.3421 113.003 17.784 113.567 16.2796C114.132 14.7484 114.938 13.3783 115.985 12.1694C117.033 10.9337 118.269 9.95313 119.693 9.2278C121.143 8.50247 122.715 8.1398 124.407 8.1398C125.643 8.1398 126.771 8.35472 127.792 8.78454C128.813 9.1875 129.632 9.81881 130.25 10.6785C130.868 11.5112 131.177 12.5724 131.177 13.8618C131.257 15.9841 130.411 17.4751 128.638 18.3347C126.892 19.1675 124.219 19.5839 120.619 19.5839C119.598 19.5839 118.524 19.5705 117.396 19.5436C116.446 19.4984 115.402 19.4342 114.262 19.3509C114.221 19.7644 114.204 20.1778 114.212 20.5913C114.239 22.0957 114.521 23.4657 115.058 24.7015C115.596 25.9104 116.375 26.8775 117.396 27.6028C118.416 28.3013 119.652 28.6505 121.103 28.6505C122.795 28.6505 124.286 28.2475 125.576 27.4416C126.865 26.6088 127.873 25.5074 128.598 24.1373L129.847 24.5C129.283 25.5746 128.558 26.5148 127.671 27.3207C126.785 28.0998 125.764 28.7177 124.609 29.1743C123.453 29.6042 122.177 29.8191 120.78 29.8191ZM114.897 16.6423C114.706 17.1622 114.555 17.6821 114.444 18.202C115.678 18.27 116.756 18.3277 117.678 18.375C118.752 18.4019 119.773 18.4153 120.74 18.4153C123.051 18.4153 124.877 18.2541 126.22 17.9317C127.564 17.5825 128.517 17.0721 129.081 16.4005C129.646 15.7289 129.901 14.8961 129.847 13.9021C129.847 12.8007 129.565 11.9276 129.001 11.2829C128.437 10.6113 127.725 10.1277 126.865 9.83224C126.032 9.50987 125.159 9.34869 124.246 9.34869C122.795 9.34869 121.439 9.68449 120.176 10.3561C118.94 11.0277 117.866 11.9142 116.952 13.0156C116.066 14.0902 115.381 15.2991 114.897 16.6423ZM139.248 28.6505C140.43 29.4296 141.8 29.8191 143.358 29.8191C144.54 29.8191 145.709 29.6042 146.864 29.1743C148.046 28.7445 149.107 28.1535 150.047 27.4013C151.015 26.6223 151.753 25.7492 152.264 24.7821L150.974 24.3791C150.652 25.1044 150.074 25.7895 149.242 26.4342C148.409 27.0521 147.482 27.5625 146.461 27.9655C145.467 28.3416 144.473 28.5296 143.479 28.5296C142.217 28.5296 141.102 28.1804 140.135 27.4819C139.167 26.7834 138.402 25.8432 137.838 24.6612C137.3 23.4792 137.032 22.1628 137.032 20.7122C137.032 19.2078 137.327 17.7706 137.918 16.4005C138.536 15.0304 139.356 13.8215 140.376 12.7739C141.397 11.7262 142.552 10.9068 143.842 10.3158C145.131 9.72478 146.461 9.42928 147.831 9.42928C149.121 9.42928 150.235 9.77851 151.176 10.477C152.116 11.1754 152.761 12.1425 153.11 13.3783L154.561 12.8947C154.211 11.4172 153.446 10.2621 152.264 9.42928C151.082 8.56963 149.618 8.1398 147.871 8.1398C146.26 8.1398 144.715 8.48904 143.237 9.1875C141.787 9.8591 140.484 10.7859 139.329 11.9679C138.2 13.1499 137.3 14.5066 136.629 16.0378C135.957 17.5691 135.621 19.2078 135.621 20.954C135.621 22.5927 135.93 24.0836 136.548 25.4268C137.193 26.77 138.093 27.8446 139.248 28.6505ZM158.855 26.9581V26.5551L158.936 26.1521L162.442 9.67105H159.621L159.863 8.46217H162.724L164.255 1.24918H165.625L164.094 8.46217H168.808L168.526 9.67105H163.812L160.669 24.2985C160.534 24.9164 160.44 25.3731 160.386 25.6686C160.333 25.9641 160.306 26.1924 160.306 26.3536C160.306 26.9984 160.521 27.4953 160.951 27.8446C161.38 28.1669 161.877 28.3281 162.442 28.3281C163.006 28.3281 163.53 28.2475 164.013 28.0864C164.497 27.9252 164.9 27.7774 165.222 27.6431C165.571 27.4819 165.773 27.3745 165.826 27.3207L166.068 28.449C166.014 28.4759 165.786 28.5968 165.383 28.8117C164.98 28.9997 164.47 29.1878 163.852 29.3758C163.261 29.537 162.616 29.6176 161.918 29.6176C161.031 29.6176 160.292 29.3893 159.701 28.9326C159.137 28.449 158.855 27.7908 158.855 26.9581ZM172.111 24.2582C172.111 27.9655 173.737 29.8191 176.987 29.8191C178.76 29.8191 180.52 29.3221 182.266 28.3281C184.012 27.3342 185.503 25.9775 186.739 24.2582C186.497 25.4134 186.322 26.2596 186.215 26.7969C186.108 27.3073 186.04 27.6431 186.014 27.8043C185.987 27.9655 185.973 28.0864 185.973 28.1669C185.973 28.4893 186.054 28.758 186.215 28.9729C186.403 29.1878 186.645 29.3221 186.94 29.3758C187.021 29.4027 187.115 29.4161 187.222 29.4161H187.585L187.907 28.1266C187.504 28.1266 187.303 27.9252 187.303 27.5222C187.303 27.4685 187.33 27.3342 187.384 27.1192L187.545 26.3939L191.333 8.46217H189.962L187.142 21.7599C186.497 23.0762 185.637 24.2582 184.563 25.3059C183.515 26.3268 182.387 27.1192 181.178 27.6834C179.969 28.2475 178.76 28.5296 177.551 28.5296C174.865 28.5296 173.522 26.9984 173.522 23.9359C173.522 22.8613 173.683 21.6256 174.005 20.2286L176.504 8.46217H175.134L172.595 20.3898C172.434 21.1151 172.313 21.8002 172.232 22.4449C172.152 23.0896 172.111 23.6941 172.111 24.2582ZM199.378 8.46217H200.708L199.58 13.7813C200.654 12.1694 201.89 10.9202 203.287 10.0337C204.684 9.12034 206.094 8.60992 207.518 8.50247C207.679 8.4756 207.827 8.46217 207.961 8.46217C208.122 8.46217 208.257 8.4756 208.364 8.50247L208.082 9.75165C206.255 9.83224 204.536 10.4501 202.924 11.6053C201.312 12.7336 200.036 14.2782 199.096 16.2393L196.316 29.4161H194.946L199.378 8.46217ZM213.15 28.6102C214.332 29.4161 215.742 29.8191 217.381 29.8191C218.778 29.8191 220.054 29.6042 221.209 29.1743C222.364 28.7177 223.385 28.0998 224.271 27.3207C225.158 26.5148 225.883 25.5746 226.447 24.5L225.198 24.1373C224.473 25.5074 223.466 26.6088 222.176 27.4416C220.887 28.2475 219.396 28.6505 217.703 28.6505C216.253 28.6505 215.017 28.3013 213.996 27.6028C212.975 26.8775 212.196 25.9104 211.659 24.7015C211.121 23.4657 210.839 22.0957 210.813 20.5913C210.804 20.1778 210.821 19.7644 210.863 19.3509C212.002 19.4342 213.047 19.4984 213.996 19.5436C215.124 19.5705 216.199 19.5839 217.22 19.5839C220.819 19.5839 223.492 19.1675 225.239 18.3347C227.012 17.4751 227.858 15.9841 227.777 13.8618C227.777 12.5724 227.468 11.5112 226.85 10.6785C226.233 9.81881 225.413 9.1875 224.392 8.78454C223.371 8.35472 222.243 8.1398 221.007 8.1398C219.315 8.1398 217.743 8.50247 216.293 9.2278C214.869 9.95313 213.633 10.9337 212.586 12.1694C211.538 13.3783 210.732 14.7484 210.168 16.2796C209.604 17.784 209.348 19.3421 209.402 20.954C209.429 22.5658 209.765 24.0433 210.41 25.3865C211.054 26.7297 211.968 27.8043 213.15 28.6102ZM211.044 18.202C211.155 17.6821 211.307 17.1622 211.498 16.6423C211.981 15.2991 212.666 14.0902 213.553 13.0156C214.466 11.9142 215.541 11.0277 216.776 10.3561C218.039 9.68449 219.396 9.34869 220.846 9.34869C221.76 9.34869 222.633 9.50987 223.466 9.83224C224.325 10.1277 225.037 10.6113 225.601 11.2829C226.165 11.9276 226.447 12.8007 226.447 13.9021C226.501 14.8961 226.246 15.7289 225.682 16.4005C225.118 17.0721 224.164 17.5825 222.821 17.9317C221.478 18.2541 219.651 18.4153 217.341 18.4153C216.373 18.4153 215.353 18.4019 214.278 18.375C213.356 18.3277 212.278 18.27 211.044 18.202ZM243.066 28.5296C244.086 29.0938 245.255 29.3758 246.571 29.3758C248.237 29.3758 249.862 28.946 251.447 28.0864C253.032 27.1998 254.496 25.991 255.839 24.4597L255.953 24.3265L259.144 28.9729H260.997L256.905 23.1164C257.804 21.885 258.604 20.5194 259.305 19.0197C260.133 17.2739 260.775 15.4069 261.23 13.4186H265.188L265.43 12.2097H261.481H260.554H260.151C259.721 14.4394 259.063 16.5214 258.177 18.4556C257.589 19.7589 256.92 20.9619 256.17 22.0645L249.311 12.25C248.72 11.3904 248.237 10.6247 247.861 9.95313C247.485 9.28153 247.216 8.67709 247.055 8.1398C246.894 7.60252 246.813 7.10554 246.813 6.64885C246.813 5.70861 247.122 4.8221 247.74 3.98931C248.358 3.12966 249.15 2.44463 250.117 1.93421C251.111 1.39693 252.172 1.12829 253.301 1.12829C254.59 1.12829 255.732 1.47752 256.726 2.17599C257.747 2.87445 258.499 3.84156 258.982 5.0773L259.909 4.23109C259.533 3.34457 259.023 2.59238 258.378 1.97451C257.76 1.32977 257.035 0.846218 256.202 0.523849C255.369 0.174616 254.469 0 253.502 0C252.105 0 250.789 0.322368 249.553 0.967105C248.344 1.58498 247.364 2.40433 246.612 3.42517C245.859 4.446 245.483 5.57429 245.483 6.81003C245.483 7.40104 245.591 8.03235 245.806 8.70395C246.047 9.34869 246.424 10.1143 246.934 11.0008C247.206 11.4591 247.528 11.9746 247.899 12.5473C246.718 13.2407 245.657 13.9341 244.718 14.6275C243.616 15.4334 242.689 16.2662 241.937 17.1258C241.212 17.9855 240.675 18.8854 240.325 19.8257C239.976 20.739 239.802 21.6927 239.802 22.6867C239.802 24.003 240.084 25.1716 240.648 26.1924C241.239 27.1864 242.045 27.9655 243.066 28.5296ZM248.553 13.5379C247.095 14.3981 245.857 15.2582 244.839 16.1184C243.63 17.1124 242.73 18.1332 242.139 19.1809C241.548 20.2286 241.252 21.3569 241.252 22.5658C241.252 24.2045 241.763 25.5477 242.783 26.5954C243.831 27.6162 245.174 28.1266 246.813 28.1266C248.291 28.1266 249.728 27.7237 251.125 26.9178C252.549 26.1118 253.865 24.9836 255.074 23.5329C255.134 23.4587 255.195 23.384 255.255 23.3088L248.989 14.1842C248.838 13.9626 248.693 13.7471 248.553 13.5379ZM429.519 0H430.889L427.988 13.7007C429.143 12.0082 430.567 10.665 432.259 9.67105C433.952 8.65022 435.644 8.1398 437.337 8.1398C438.411 8.1398 439.298 8.35472 439.996 8.78454C440.695 9.21437 441.219 9.84567 441.568 10.6785C441.917 11.4844 442.092 12.4783 442.092 13.6604C442.092 14.2245 442.051 14.8424 441.971 15.514C441.917 16.1587 441.81 16.8438 441.648 17.5691L439.15 29.4161H437.78L440.238 17.7303C440.372 17.0587 440.48 16.4274 440.56 15.8364C440.641 15.2185 440.681 14.6543 440.681 14.1439C440.681 12.5858 440.345 11.4172 439.674 10.6382C439.029 9.83224 438.062 9.42928 436.773 9.42928C435.617 9.42928 434.435 9.73821 433.227 10.3561C432.018 10.9471 430.903 11.7664 429.882 12.8141C428.861 13.835 428.042 15.0036 427.424 16.3199L424.643 29.4161H423.273L429.519 0ZM293.16 0.80592H284.255L278.17 29.4161H287.075C289.412 29.4161 291.575 28.9729 293.563 28.0864C295.578 27.1998 297.31 25.9641 298.761 24.3791C300.239 22.7673 301.38 20.8868 302.186 18.7377C302.992 16.5885 303.395 14.2514 303.395 11.7262C303.395 9.65762 303.032 7.804 302.307 6.1653C301.582 4.52659 300.467 3.22368 298.963 2.25658C297.458 1.28947 295.524 0.80592 293.16 0.80592ZM293.482 26.8372C291.682 27.6968 289.641 28.1266 287.357 28.1266H279.822L285.383 2.09539H292.878C294.893 2.09539 296.572 2.52522 297.915 3.38487C299.258 4.21765 300.266 5.37281 300.937 6.85033C301.636 8.32785 301.985 10.0337 301.985 11.9679C301.985 14.1171 301.649 16.1587 300.977 18.0929C300.306 20.0003 299.339 21.7196 298.076 23.2508C296.813 24.7552 295.282 25.9507 293.482 26.8372ZM312.564 8.46217H311.235L306.802 29.4161H308.172L310.953 16.2393C311.893 14.2782 313.169 12.7336 314.781 11.6053C316.393 10.4501 318.112 9.83224 319.939 9.75165L320.221 8.50247C320.113 8.4756 319.979 8.46217 319.818 8.46217C319.683 8.46217 319.536 8.4756 319.374 8.50247C317.951 8.60992 316.54 9.12034 315.143 10.0337C313.746 10.9202 312.511 12.1694 311.436 13.7813L312.564 8.46217ZM328.875 29.8191C327.155 29.8191 325.718 29.4296 324.563 28.6505C323.408 27.8714 322.535 26.8237 321.944 25.5074C321.379 24.1642 321.097 22.7001 321.097 21.1151C321.097 19.2884 321.42 17.5959 322.064 16.0378C322.736 14.4797 323.636 13.1096 324.764 11.9276C325.893 10.7188 327.182 9.79194 328.633 9.1472C330.083 8.4756 331.574 8.1398 333.106 8.1398C334.825 8.1398 336.262 8.54276 337.417 9.34869C338.572 10.1277 339.432 11.1889 339.996 12.5321C340.56 13.8484 340.842 15.3125 340.842 16.9243C340.842 18.7242 340.52 20.4032 339.875 21.9613C339.231 23.5195 338.344 24.8895 337.216 26.0716C336.114 27.2536 334.838 28.1804 333.388 28.852C331.964 29.4967 330.46 29.8191 328.875 29.8191ZM329.116 28.5296C330.433 28.5296 331.709 28.2475 332.944 27.6834C334.18 27.1192 335.282 26.3133 336.249 25.2656C337.243 24.2179 338.022 23.009 338.586 21.639C339.177 20.2421 339.472 18.7511 339.472 17.1661C339.472 15.7423 339.217 14.4529 338.707 13.2977C338.223 12.1157 337.498 11.1754 336.531 10.477C335.564 9.77851 334.341 9.42928 332.864 9.42928C331.548 9.42928 330.271 9.72478 329.036 10.3158C327.8 10.8799 326.685 11.6993 325.691 12.7739C324.724 13.8215 323.945 15.0439 323.354 16.4408C322.79 17.8109 322.508 19.3018 322.508 20.9137C322.508 22.3374 322.75 23.6269 323.233 24.7821C323.717 25.9372 324.455 26.8506 325.449 27.5222C326.443 28.1938 327.666 28.5296 329.116 28.5296ZM350.692 8.46217H349.403L344.97 29.4161H346.34L349.12 16.3199C349.765 15.0036 350.625 13.835 351.699 12.8141C352.774 11.7664 353.943 10.9471 355.205 10.3561C356.468 9.73821 357.69 9.42928 358.872 9.42928C360.054 9.42928 360.941 9.77851 361.532 10.477C362.123 11.1754 362.418 12.25 362.418 13.7007C362.418 14.2648 362.378 14.8827 362.297 15.5543C362.244 16.199 362.123 16.9243 361.935 17.7303L359.477 29.4161H360.847L363.345 17.5691C363.506 16.7363 363.627 15.9572 363.708 15.2319C363.815 14.5066 363.869 13.835 363.869 13.2171C363.869 12.0888 363.708 11.1486 363.385 10.3964C363.09 9.64419 362.606 9.08005 361.935 8.70395C361.29 8.32785 360.457 8.1398 359.436 8.1398C358.254 8.1398 357.045 8.38158 355.81 8.86513C354.601 9.32182 353.459 9.96656 352.384 10.7993C351.31 11.6321 350.383 12.5992 349.604 13.7007L350.692 8.46217ZM377.243 29.8191C375.604 29.8191 374.194 29.4161 373.012 28.6102C371.83 27.8043 370.917 26.7297 370.272 25.3865C369.627 24.0433 369.291 22.5658 369.264 20.954C369.211 19.3421 369.466 17.784 370.03 16.2796C370.594 14.7484 371.4 13.3783 372.448 12.1694C373.495 10.9337 374.731 9.95313 376.155 9.2278C377.606 8.50247 379.177 8.1398 380.87 8.1398C382.105 8.1398 383.234 8.35472 384.255 8.78454C385.275 9.1875 386.095 9.81881 386.713 10.6785C387.33 11.5112 387.639 12.5724 387.639 13.8618C387.72 15.9841 386.874 17.4751 385.101 18.3347C383.355 19.1675 380.682 19.5839 377.082 19.5839C376.061 19.5839 374.986 19.5705 373.858 19.5436C372.909 19.4984 371.864 19.4342 370.725 19.3509C370.683 19.7644 370.666 20.1778 370.675 20.5913C370.702 22.0957 370.984 23.4657 371.521 24.7015C372.058 25.9104 372.837 26.8775 373.858 27.6028C374.879 28.3013 376.115 28.6505 377.565 28.6505C379.258 28.6505 380.749 28.2475 382.038 27.4416C383.328 26.6088 384.335 25.5074 385.06 24.1373L386.31 24.5C385.745 25.5746 385.02 26.5148 384.134 27.3207C383.247 28.0998 382.226 28.7177 381.071 29.1743C379.916 29.6042 378.64 29.8191 377.243 29.8191ZM371.36 16.6423C371.169 17.1622 371.018 17.6821 370.906 18.202C372.14 18.27 373.218 18.3277 374.14 18.375C375.215 18.4019 376.236 18.4153 377.203 18.4153C379.513 18.4153 381.34 18.2541 382.683 17.9317C384.026 17.5825 384.98 17.0721 385.544 16.4005C386.108 15.7289 386.363 14.8961 386.31 13.9021C386.31 12.8007 386.028 11.9276 385.463 11.2829C384.899 10.6113 384.187 10.1277 383.328 9.83224C382.495 9.50987 381.622 9.34869 380.708 9.34869C379.258 9.34869 377.901 9.68449 376.639 10.3561C375.403 11.0277 374.328 11.9142 373.415 13.0156C372.528 14.0902 371.843 15.2991 371.36 16.6423ZM405.137 29.0132C406.373 29.5504 407.77 29.8191 409.328 29.8191C411.047 29.8191 412.565 29.5504 413.881 29.0132C415.224 28.4759 416.272 27.6834 417.024 26.6357C417.803 25.588 418.193 24.3388 418.193 22.8882C418.193 21.9211 417.924 21.1554 417.387 20.5913C416.85 20.0003 416.084 19.5302 415.09 19.1809C414.123 18.8048 412.954 18.4287 411.584 18.0526C410.026 17.6497 408.858 17.2467 408.079 16.8438C407.3 16.4408 406.91 15.7423 406.91 14.7484C406.91 13.4857 407.246 12.4649 407.917 11.6859C408.616 10.8799 409.489 10.2889 410.537 9.91283C411.611 9.53673 412.699 9.34869 413.801 9.34869C415.036 9.34869 416.138 9.5636 417.105 9.99342C418.099 10.3964 418.784 11.0008 419.16 11.8067L420.167 11.1217C419.818 10.2621 419.12 9.55017 418.072 8.98602C417.024 8.42188 415.695 8.1398 414.083 8.1398C412.551 8.1398 411.128 8.40845 409.811 8.94573C408.522 9.45614 407.488 10.2352 406.709 11.2829C405.93 12.3037 405.54 13.5798 405.54 15.111C405.54 15.9707 405.741 16.6557 406.144 17.1661C406.574 17.6497 407.206 18.0392 408.038 18.3347C408.871 18.6302 409.879 18.9391 411.061 19.2615C412.887 19.7451 414.298 20.2421 415.292 20.7525C416.286 21.236 416.783 22.0554 416.783 23.2105C416.783 24.2851 416.46 25.2388 415.815 26.0716C415.198 26.8775 414.338 27.5088 413.237 27.9655C412.135 28.3953 410.886 28.6102 409.489 28.6102C408.146 28.6102 406.95 28.3684 405.903 27.8849C404.882 27.3745 403.942 26.6088 403.082 25.588L402.155 26.5148C402.934 27.6162 403.928 28.449 405.137 29.0132ZM450.872 28.6505C452.027 29.4296 453.464 29.8191 455.184 29.8191C456.769 29.8191 458.273 29.4967 459.697 28.852C461.148 28.1804 462.424 27.2536 463.525 26.0716C464.653 24.8895 465.54 23.5195 466.185 21.9613C466.829 20.4032 467.152 18.7242 467.152 16.9243C467.152 15.3125 466.87 13.8484 466.305 12.5321C465.741 11.1889 464.882 10.1277 463.727 9.34869C462.571 8.54276 461.134 8.1398 459.415 8.1398C457.884 8.1398 456.393 8.4756 454.942 9.1472C453.491 9.79194 452.202 10.7188 451.074 11.9276C449.945 13.1096 449.045 14.4797 448.374 16.0378C447.729 17.5959 447.407 19.2884 447.407 21.1151C447.407 22.7001 447.689 24.1642 448.253 25.5074C448.844 26.8237 449.717 27.8714 450.872 28.6505ZM459.254 27.6834C458.018 28.2475 456.742 28.5296 455.426 28.5296C453.975 28.5296 452.753 28.1938 451.759 27.5222C450.765 26.8506 450.026 25.9372 449.542 24.7821C449.059 23.6269 448.817 22.3374 448.817 20.9137C448.817 19.3018 449.099 17.8109 449.663 16.4408C450.254 15.0439 451.033 13.8215 452 12.7739C452.994 11.6993 454.109 10.8799 455.345 10.3158C456.581 9.72478 457.857 9.42928 459.173 9.42928C460.651 9.42928 461.873 9.77851 462.84 10.477C463.807 11.1754 464.532 12.1157 465.016 13.2977C465.526 14.4529 465.782 15.7423 465.782 17.1661C465.782 18.7511 465.486 20.2421 464.895 21.639C464.331 23.009 463.552 24.2179 462.558 25.2656C461.591 26.3133 460.489 27.1192 459.254 27.6834ZM479.58 29.8191C477.861 29.8191 476.424 29.4296 475.269 28.6505C474.113 27.8714 473.24 26.8237 472.649 25.5074C472.085 24.1642 471.803 22.7001 471.803 21.1151C471.803 19.2884 472.125 17.5959 472.77 16.0378C473.442 14.4797 474.342 13.1096 475.47 11.9276C476.598 10.7188 477.888 9.79194 479.338 9.1472C480.789 8.4756 482.28 8.1398 483.811 8.1398C485.531 8.1398 486.968 8.54276 488.123 9.34869C489.278 10.1277 490.138 11.1889 490.702 12.5321C491.266 13.8484 491.548 15.3125 491.548 16.9243C491.548 18.7242 491.226 20.4032 490.581 21.9613C489.936 23.5195 489.05 24.8895 487.921 26.0716C486.82 27.2536 485.544 28.1804 484.093 28.852C482.67 29.4967 481.165 29.8191 479.58 29.8191ZM479.822 28.5296C481.138 28.5296 482.414 28.2475 483.65 27.6834C484.886 27.1192 485.987 26.3133 486.954 25.2656C487.948 24.2179 488.727 23.009 489.292 21.639C489.883 20.2421 490.178 18.7511 490.178 17.1661C490.178 15.7423 489.923 14.4529 489.412 13.2977C488.929 12.1157 488.204 11.1754 487.236 10.477C486.269 9.77851 485.047 9.42928 483.57 9.42928C482.253 9.42928 480.977 9.72478 479.741 10.3158C478.506 10.8799 477.391 11.6993 476.397 12.7739C475.43 13.8215 474.651 15.0439 474.06 16.4408C473.495 17.8109 473.213 19.3018 473.213 20.9137C473.213 22.3374 473.455 23.6269 473.939 24.7821C474.422 25.9372 475.161 26.8506 476.155 27.5222C477.149 28.1938 478.371 28.5296 479.822 28.5296ZM496.651 26.5551V26.9581C496.651 27.7908 496.933 28.449 497.497 28.9326C498.088 29.3893 498.827 29.6176 499.714 29.6176C500.412 29.6176 501.057 29.537 501.648 29.3758C502.266 29.1878 502.776 28.9997 503.179 28.8117C503.582 28.5968 503.81 28.4759 503.864 28.449L503.622 27.3207C503.569 27.3745 503.367 27.4819 503.018 27.6431C502.696 27.7774 502.293 27.9252 501.809 28.0864C501.326 28.2475 500.802 28.3281 500.238 28.3281C499.673 28.3281 499.176 28.1669 498.747 27.8446C498.317 27.4953 498.102 26.9984 498.102 26.3536C498.102 26.1924 498.129 25.9641 498.182 25.6686C498.236 25.3731 498.33 24.9164 498.465 24.2985L501.608 9.67105H506.322L506.604 8.46217H501.89L503.421 1.24918H502.051L500.52 8.46217H497.659L497.417 9.67105H500.238L496.732 26.1521L496.651 26.5551ZM513.171 8.46217H514.541L510.109 29.4161H508.739L513.171 8.46217ZM514.985 0H516.355L515.629 3.38487H514.259L514.985 0ZM523.786 8.46217H522.496L518.064 29.4161H519.434L522.214 16.3199C522.859 15.0036 523.718 13.835 524.793 12.8141C525.868 11.7664 527.036 10.9471 528.299 10.3561C529.561 9.73821 530.784 9.42928 531.966 9.42928C533.148 9.42928 534.034 9.77851 534.625 10.477C535.216 11.1754 535.512 12.25 535.512 13.7007C535.512 14.2648 535.471 14.8827 535.391 15.5543C535.337 16.199 535.216 16.9243 535.028 17.7303L532.57 29.4161H533.94L536.439 17.5691C536.6 16.7363 536.721 15.9572 536.801 15.2319C536.909 14.5066 536.962 13.835 536.962 13.2171C536.962 12.0888 536.801 11.1486 536.479 10.3964C536.183 9.64419 535.7 9.08005 535.028 8.70395C534.383 8.32785 533.551 8.1398 532.53 8.1398C531.348 8.1398 530.139 8.38158 528.903 8.86513C527.694 9.32182 526.553 9.96656 525.478 10.7993C524.403 11.6321 523.477 12.5992 522.698 13.7007L523.786 8.46217ZM547.758 38.4021C545.528 38.4021 543.795 37.9455 542.559 37.0321C541.351 36.1187 540.518 34.9367 540.061 33.486L541.189 32.9219C541.727 34.3994 542.559 35.474 543.688 36.1456C544.816 36.844 546.253 37.1933 547.999 37.1933C549.396 37.1933 550.726 36.9246 551.989 36.3873C553.278 35.8501 554.38 35.0441 555.293 33.9696C556.233 32.9219 556.865 31.619 557.187 30.0609L558.275 25.1447C557.173 26.5148 555.83 27.6297 554.245 28.4893C552.66 29.349 551.129 29.7788 549.652 29.7788C548.093 29.7788 546.75 29.3624 545.622 28.5296C544.521 27.6968 543.674 26.6088 543.083 25.2656C542.492 23.9224 542.197 22.4852 542.197 20.954C542.197 19.369 542.506 17.8243 543.124 16.3199C543.768 14.7887 544.641 13.4186 545.743 12.2097C546.844 10.974 548.107 9.99342 549.531 9.26809C550.954 8.5159 552.445 8.1398 554.004 8.1398C555.777 8.1398 557.2 8.63679 558.275 9.63076C559.376 10.6247 560.249 11.8202 560.894 13.2171L561.902 8.46217H563.151L558.557 30.0609C558.181 31.9145 557.429 33.4592 556.3 34.6949C555.199 35.9575 553.896 36.8843 552.392 37.4753C550.887 38.0932 549.343 38.4021 547.758 38.4021ZM550.175 28.5296C551.062 28.5296 551.962 28.355 552.875 28.0058C553.789 27.6565 554.648 27.1864 555.454 26.5954C556.287 26.0044 556.999 25.3597 557.59 24.6612C558.181 23.9359 558.597 23.2105 558.839 22.4852L560.37 15.2722C560.209 14.1171 559.82 13.1097 559.202 12.25C558.584 11.3635 557.805 10.6785 556.865 10.1949C555.951 9.68449 554.957 9.42928 553.883 9.42928C552.432 9.42928 551.075 9.77851 549.813 10.477C548.577 11.1486 547.489 12.0485 546.549 13.1768C545.635 14.3051 544.91 15.5408 544.373 16.884C543.862 18.2004 543.607 19.4899 543.607 20.7525C543.607 22.1494 543.876 23.4389 544.413 24.6209C544.95 25.8029 545.703 26.7566 546.67 27.4819C547.664 28.1804 548.832 28.5296 550.175 28.5296ZM81.0221 209.311H49.5098V92.4945H6.55664V66H123.975V92.4945H81.0221V209.311ZM186.924 101.326H186.522L167.856 153.913H204.988L186.924 101.326ZM148.386 209.311H116.472L170.866 66H203.182L256.773 209.311H224.056L213.217 177.397H159.626L148.386 209.311ZM278.956 209.311H310.469V163.146L328.533 144.881L371.687 209.311H411.228L349.809 122.602L405.809 66H366.469L310.469 125.412V66H278.956V209.311ZM522.606 66H554.118V155.118C554.118 193.856 531.237 212.723 492.9 212.723C454.162 212.723 431.883 194.257 431.883 155.118V66H463.395V155.118C463.395 170.774 467.409 186.229 492.9 186.229C515.38 186.229 522.606 176.594 522.606 155.118V66ZM329.633 288.167V245.84H335.158V288.167H329.633ZM329.633 236.985V228.86H335.158V236.985H329.633ZM317.044 287.03C317.965 286.596 318.642 286.298 319.075 286.136L317.613 281.668C317.342 281.884 316.584 282.263 315.338 282.805C314.092 283.293 312.711 283.536 311.195 283.536C309.895 283.536 308.73 283.157 307.701 282.399C306.726 281.641 306.185 280.503 306.076 278.987V250.227H315.825V245.84H306.076V231.541H300.552V245.84H294.702V250.227H300.552V280.53C300.552 282.318 300.958 283.834 301.77 285.08C302.583 286.271 303.666 287.165 305.02 287.761C306.428 288.357 307.918 288.655 309.488 288.655C311.005 288.655 312.413 288.492 313.713 288.167C315.013 287.842 316.123 287.463 317.044 287.03ZM139.145 288.979C136.058 288.979 133.214 288.411 130.614 287.273C128.069 286.082 125.821 284.457 123.871 282.399C121.976 280.341 120.486 277.985 119.403 275.331C118.374 272.677 117.859 269.861 117.859 266.882C117.859 262.874 118.753 259.218 120.54 255.914C122.328 252.61 124.819 249.983 128.015 248.033C131.21 246.084 134.893 245.109 139.064 245.109C143.017 245.109 146.511 246.03 149.544 247.871C152.577 249.658 154.825 252.096 156.287 255.183L150.925 256.889C149.733 254.722 148.054 253.043 145.888 251.852C143.776 250.606 141.42 249.983 138.82 249.983C136.003 249.983 133.431 250.714 131.102 252.177C128.773 253.639 126.904 255.643 125.496 258.189C124.142 260.734 123.465 263.632 123.465 266.882C123.465 270.077 124.169 272.975 125.577 275.575C126.986 278.174 128.854 280.259 131.183 281.83C133.512 283.347 136.085 284.105 138.901 284.105C140.743 284.105 142.503 283.78 144.182 283.13C145.915 282.48 147.404 281.614 148.65 280.53C149.95 279.393 150.817 278.174 151.25 276.874L156.693 278.499C155.935 280.503 154.662 282.318 152.875 283.942C151.142 285.513 149.083 286.759 146.7 287.68C144.371 288.546 141.853 288.979 139.145 288.979ZM190.151 250.714C186.468 250.823 183.218 251.852 180.402 253.802C177.64 255.751 175.69 258.432 174.552 261.845V288.167H169.028V245.84H174.227V255.995C175.69 253.016 177.612 250.606 179.996 248.765C182.433 246.923 185.006 245.894 187.714 245.677C188.255 245.623 188.716 245.596 189.095 245.596C189.528 245.596 189.88 245.623 190.151 245.677V250.714ZM209.648 287.273C212.247 288.411 215.064 288.979 218.097 288.979C220.859 288.979 223.432 288.546 225.815 287.68C228.252 286.759 230.364 285.486 232.152 283.861C233.939 282.236 235.266 280.422 236.133 278.418L231.339 277.118C230.364 279.393 228.631 281.234 226.14 282.643C223.703 284.051 221.103 284.755 218.341 284.755C215.632 284.755 213.114 284.078 210.785 282.724C208.51 281.316 206.642 279.447 205.179 277.118C203.771 274.735 202.932 272.027 202.661 268.994H238.895C238.949 268.777 238.976 268.479 238.976 268.1V266.8C238.976 262.901 238.082 259.326 236.295 256.076C234.508 252.773 232.043 250.119 228.902 248.115C225.815 246.111 222.186 245.109 218.016 245.109C213.953 245.109 210.325 246.111 207.129 248.115C203.934 250.065 201.415 252.691 199.574 255.995C197.786 259.299 196.893 262.928 196.893 266.882C196.893 269.915 197.407 272.758 198.436 275.412C199.519 278.066 201.009 280.422 202.905 282.48C204.8 284.484 207.048 286.082 209.648 287.273ZM233.777 265.013H202.498C202.715 261.98 203.527 259.299 204.936 256.97C206.398 254.587 208.267 252.746 210.541 251.446C212.816 250.092 215.335 249.415 218.097 249.415C220.859 249.415 223.378 250.092 225.652 251.446C227.981 252.746 229.85 254.56 231.258 256.889C232.72 259.218 233.56 261.926 233.777 265.013ZM247.743 275.981C247.743 273.327 248.501 271.052 250.018 269.156C251.535 267.207 253.62 265.717 256.274 264.688C258.982 263.605 262.096 263.063 265.616 263.063C267.675 263.063 269.814 263.226 272.035 263.551C274.255 263.876 276.232 264.363 277.965 265.013V261.438C277.965 257.864 276.909 255.02 274.797 252.908C272.685 250.796 269.76 249.74 266.023 249.74C263.748 249.74 261.5 250.173 259.28 251.039C257.113 251.852 254.838 253.07 252.455 254.695L250.343 250.796C253.105 248.9 255.813 247.492 258.467 246.571C261.121 245.596 263.829 245.109 266.591 245.109C271.791 245.109 275.907 246.598 278.94 249.577C281.973 252.556 283.49 256.672 283.49 261.926V281.505C283.49 282.263 283.652 282.832 283.977 283.211C284.302 283.536 284.817 283.726 285.521 283.78V288.167C284.925 288.221 284.41 288.275 283.977 288.33C283.544 288.384 283.219 288.384 283.002 288.33C281.648 288.275 280.619 287.842 279.915 287.03C279.211 286.217 278.832 285.351 278.778 284.43L278.696 281.343C276.801 283.78 274.336 285.676 271.303 287.03C268.27 288.33 265.183 288.979 262.042 288.979C259.334 288.979 256.869 288.411 254.649 287.273C252.482 286.082 250.776 284.511 249.531 282.561C248.339 280.557 247.743 278.364 247.743 275.981ZM276.097 279.23C276.692 278.472 277.153 277.741 277.478 277.037C277.803 276.333 277.965 275.71 277.965 275.168V268.994C276.124 268.29 274.201 267.748 272.197 267.369C270.247 266.99 268.27 266.8 266.266 266.8C262.313 266.8 259.117 267.586 256.68 269.156C254.243 270.727 253.024 272.866 253.024 275.575C253.024 277.145 253.43 278.635 254.243 280.043C255.055 281.397 256.247 282.534 257.817 283.455C259.388 284.322 261.229 284.755 263.342 284.755C265.996 284.755 268.46 284.24 270.735 283.211C273.064 282.182 274.851 280.855 276.097 279.23ZM360.568 287.273C363.168 288.411 365.984 288.979 369.017 288.979C372.104 288.979 374.921 288.411 377.466 287.273C380.066 286.082 382.287 284.484 384.128 282.48C386.024 280.422 387.486 278.093 388.515 275.493C389.544 272.839 390.059 270.05 390.059 267.125C390.059 264.092 389.544 261.276 388.515 258.676C387.486 256.022 386.024 253.693 384.128 251.689C382.233 249.631 380.012 248.033 377.466 246.896C374.921 245.705 372.132 245.109 369.099 245.109C366.065 245.109 363.249 245.705 360.649 246.896C358.104 248.033 355.883 249.631 353.987 251.689C352.092 253.693 350.629 256.022 349.6 258.676C348.571 261.276 348.057 264.092 348.057 267.125C348.057 270.05 348.571 272.839 349.6 275.493C350.629 278.093 352.065 280.422 353.906 282.48C355.802 284.484 358.022 286.082 360.568 287.273ZM355.694 275.818C354.34 273.219 353.663 270.348 353.663 267.207C353.663 264.011 354.367 261.141 355.775 258.595C357.183 255.995 359.025 253.91 361.299 252.339C363.628 250.769 366.201 249.983 369.017 249.983C371.834 249.983 374.406 250.742 376.735 252.258C379.064 253.775 380.933 255.833 382.341 258.432C383.749 261.032 384.453 263.903 384.453 267.044C384.453 270.131 383.749 273.002 382.341 275.656C380.933 278.256 379.064 280.314 376.735 281.83C374.406 283.347 371.834 284.105 369.017 284.105C366.201 284.105 363.628 283.374 361.299 281.911C358.97 280.395 357.102 278.364 355.694 275.818ZM433.014 288.167V264.526C433.014 259.543 432.283 255.914 430.82 253.639C429.358 251.31 427.056 250.146 423.915 250.146C421.748 250.146 419.609 250.687 417.497 251.771C415.384 252.8 413.516 254.235 411.891 256.076C410.32 257.864 409.183 259.922 408.479 262.251V288.167H402.954V245.84H407.991V255.426C409.129 253.368 410.618 251.581 412.46 250.065C414.301 248.494 416.386 247.275 418.715 246.409C421.044 245.542 423.454 245.109 425.946 245.109C428.275 245.109 430.252 245.542 431.876 246.409C433.501 247.275 434.801 248.521 435.776 250.146C436.751 251.716 437.455 253.639 437.888 255.914C438.322 258.135 438.538 260.626 438.538 263.388V288.167H433.014Z" fill="white"/>
</svg>
