<svg width="150" height="61" viewBox="0 0 150 61" fill="none" xmlns="http://www.w3.org/2000/svg">
<path fill-rule="evenodd" clip-rule="evenodd" d="M47.3775 0H47.6632L47.0582 2.85667C47.2991 2.50378 47.5959 2.22372 47.9488 2.01647C48.3017 1.80362 48.6546 1.6972 49.0075 1.6972C49.2315 1.6972 49.4164 1.74201 49.562 1.83163C49.7076 1.92125 49.8169 2.05288 49.8897 2.22652C49.9625 2.39456 49.9989 2.60181 49.9989 2.84826C49.9989 2.96589 49.9905 3.09472 49.9737 3.23475C49.9625 3.36918 49.9401 3.51202 49.9065 3.66325L49.3856 6.13343H49.0999L49.6124 3.69686C49.6404 3.55683 49.6628 3.4252 49.6796 3.30197C49.6964 3.17314 49.7048 3.05551 49.7048 2.94909C49.7048 2.62421 49.6348 2.38055 49.4948 2.21812C49.3604 2.05008 49.1587 1.96606 48.8899 1.96606C48.649 1.96606 48.4025 2.03047 48.1505 2.1593C47.8984 2.28253 47.666 2.45337 47.4531 2.67182C47.2403 2.88467 47.0694 3.12833 46.9406 3.40279L46.3609 6.13343H46.0752L47.3775 0ZM18.9458 0.168039H17.089L15.8203 6.13343H17.6771C18.1644 6.13343 18.6153 6.04101 19.0298 5.85616C19.4499 5.67132 19.8112 5.41366 20.1137 5.08318C20.4217 4.74711 20.6598 4.35501 20.8278 3.90691C20.9959 3.45881 21.0799 2.97149 21.0799 2.44497C21.0799 2.01367 21.0043 1.62718 20.853 1.2855C20.7018 0.94382 20.4694 0.672157 20.1557 0.47051C19.842 0.268863 19.4387 0.168039 18.9458 0.168039ZM19.013 5.5957C18.6377 5.77495 18.212 5.86457 17.7359 5.86457H16.1648L17.3242 0.436902H18.887C19.3071 0.436902 19.6572 0.526523 19.9372 0.705764C20.2173 0.879405 20.4273 1.12026 20.5674 1.42833C20.713 1.7364 20.7858 2.09209 20.7858 2.49538C20.7858 2.94349 20.7158 3.36918 20.5758 3.77248C20.4357 4.17017 20.2341 4.52866 19.9708 4.84793C19.7076 5.1616 19.3883 5.41086 19.013 5.5957ZM22.9917 1.76441H22.7145L21.7903 6.13343H22.0759L22.6557 3.38599C22.8517 2.97709 23.1178 2.65502 23.4538 2.41976C23.7899 2.17891 24.1484 2.05008 24.5293 2.03327L24.5881 1.77281C24.5657 1.76721 24.5377 1.76441 24.5041 1.76441C24.4761 1.76441 24.4453 1.76721 24.4117 1.77281C24.1148 1.79522 23.8207 1.90164 23.5295 2.09209C23.2382 2.27693 22.9805 2.53739 22.7565 2.87347L22.9917 1.76441ZM26.3925 6.21745C26.034 6.21745 25.7343 6.13623 25.4935 5.97379C25.2526 5.81135 25.0706 5.5929 24.9474 5.31844C24.8297 5.03837 24.7709 4.7331 24.7709 4.40263C24.7709 4.02174 24.8381 3.66885 24.9726 3.34398C25.1126 3.0191 25.3002 2.73344 25.5355 2.48698C25.7708 2.23492 26.0396 2.04168 26.3421 1.90724C26.6446 1.76721 26.9554 1.6972 27.2747 1.6972C27.6332 1.6972 27.9329 1.78122 28.1737 1.94925C28.4146 2.11169 28.5938 2.33294 28.7114 2.61301C28.8291 2.88747 28.8879 3.19274 28.8879 3.52882C28.8879 3.90411 28.8207 4.25419 28.6862 4.57907C28.5518 4.90394 28.367 5.18961 28.1317 5.43607C27.902 5.68252 27.636 5.87577 27.3335 6.0158C27.0366 6.15023 26.723 6.21745 26.3925 6.21745ZM26.4429 5.94859C26.7174 5.94859 26.9834 5.88977 27.2411 5.77215C27.4988 5.65452 27.7284 5.48648 27.9301 5.26803C28.1373 5.04958 28.2997 4.79752 28.4174 4.51185C28.5406 4.22058 28.6022 3.90971 28.6022 3.57923C28.6022 3.28236 28.549 3.0135 28.4426 2.77265C28.3418 2.52619 28.1905 2.33014 27.9889 2.18451C27.7872 2.03887 27.5324 1.96606 27.2243 1.96606C26.9498 1.96606 26.6838 2.02767 26.4261 2.1509C26.1684 2.26853 25.936 2.43937 25.7287 2.66342C25.5271 2.88187 25.3647 3.13673 25.2414 3.428C25.1238 3.71367 25.065 4.02454 25.065 4.36062C25.065 4.65749 25.1154 4.92635 25.2162 5.1672C25.317 5.40806 25.4711 5.5985 25.6783 5.73854C25.8856 5.87857 26.1404 5.94859 26.4429 5.94859ZM30.9416 1.76441H30.6727L29.7485 6.13343H30.0342L30.6139 3.40279C30.7483 3.12833 30.9276 2.88467 31.1516 2.67182C31.3757 2.45337 31.6193 2.28253 31.8826 2.1593C32.1458 2.03047 32.4007 1.96606 32.6472 1.96606C32.8936 1.96606 33.0785 2.03887 33.2017 2.18451C33.3249 2.33014 33.3865 2.5542 33.3865 2.85667C33.3865 2.97429 33.3781 3.10312 33.3613 3.24316C33.3501 3.37759 33.3249 3.52882 33.2857 3.69686L32.7732 6.13343H33.0589L33.5798 3.66325C33.6134 3.48961 33.6386 3.32718 33.6554 3.17594C33.6778 3.0247 33.689 2.88467 33.689 2.75584C33.689 2.52059 33.6554 2.32454 33.5882 2.1677C33.5266 2.01087 33.4257 1.89324 33.2857 1.81482C33.1513 1.7364 32.9776 1.6972 32.7648 1.6972C32.5183 1.6972 32.2663 1.74761 32.0086 1.84843C31.7566 1.94365 31.5185 2.07808 31.2944 2.25172C31.0704 2.42537 30.8771 2.62701 30.7147 2.85667L30.9416 1.76441ZM36.4776 6.21745C36.1359 6.21745 35.8419 6.13343 35.5954 5.96539C35.3489 5.79735 35.1585 5.5733 35.0241 5.29323C34.8896 5.01317 34.8196 4.7051 34.814 4.36902C34.8028 4.03294 34.856 3.70806 34.9737 3.39439C35.0913 3.07512 35.2593 2.78945 35.4778 2.53739C35.6962 2.27973 35.9539 2.07528 36.2507 1.92405C36.5532 1.77281 36.8809 1.6972 37.2338 1.6972C37.4914 1.6972 37.7267 1.74201 37.9395 1.83163C38.1524 1.91565 38.3232 2.04728 38.4521 2.22652C38.5809 2.40016 38.6453 2.62141 38.6453 2.89027C38.6621 3.33278 38.4857 3.64365 38.116 3.82289C37.7519 3.99653 37.1946 4.08335 36.444 4.08335C36.2311 4.08335 36.0071 4.08055 35.7718 4.07495C35.5739 4.06552 35.3561 4.05213 35.1186 4.03478C35.1098 4.12099 35.1063 4.20719 35.1081 4.2934C35.1137 4.60707 35.1725 4.89274 35.2845 5.1504C35.3965 5.40246 35.559 5.60411 35.7718 5.75534C35.9847 5.90098 36.2423 5.97379 36.5448 5.97379C36.8977 5.97379 37.2086 5.88977 37.4774 5.72173C37.7463 5.54809 37.9563 5.31844 38.1076 5.03277L38.368 5.10839C38.2504 5.33244 38.0992 5.52849 37.9143 5.69653C37.7295 5.85897 37.5166 5.9878 37.2758 6.08302C37.0349 6.17264 36.7689 6.21745 36.4776 6.21745ZM35.2509 3.47001C35.2111 3.57841 35.1796 3.68681 35.1564 3.79521C35.4137 3.80941 35.6384 3.82143 35.8307 3.83129C36.0547 3.83689 36.2676 3.83969 36.4692 3.83969C36.9509 3.83969 37.3318 3.80609 37.6119 3.73887C37.8919 3.66605 38.0908 3.55963 38.2084 3.4196C38.326 3.27956 38.3792 3.10592 38.368 2.89868C38.368 2.66902 38.3092 2.48698 38.1916 2.35255C38.074 2.21252 37.9255 2.11169 37.7463 2.05008C37.5727 1.98286 37.3906 1.94925 37.2002 1.94925C36.8977 1.94925 36.6148 2.01927 36.3516 2.1593C36.0939 2.29934 35.8699 2.48418 35.6794 2.71383C35.4946 2.93788 35.3517 3.18994 35.2509 3.47001ZM42.2937 6.04941C42.5513 6.16144 42.8426 6.21745 43.1675 6.21745C43.5259 6.21745 43.8424 6.16144 44.1169 6.04941C44.3969 5.93738 44.6154 5.77214 44.7722 5.55369C44.9347 5.33524 45.0159 5.07478 45.0159 4.77231C45.0159 4.57066 44.9599 4.41103 44.8479 4.2934C44.7358 4.17017 44.5762 4.07215 44.3689 3.99933C44.1673 3.92091 43.9236 3.8425 43.638 3.76408C43.3131 3.68006 43.0694 3.59604 42.907 3.51202C42.7446 3.428 42.6633 3.28236 42.6633 3.07512C42.6633 2.81186 42.7334 2.59901 42.8734 2.43657C43.019 2.26853 43.2011 2.1453 43.4195 2.06688C43.6436 1.98846 43.8704 1.94925 44.1001 1.94925C44.3577 1.94925 44.5874 1.99406 44.789 2.08369C44.9963 2.16771 45.1391 2.29373 45.2175 2.46177L45.4276 2.31894C45.3548 2.1397 45.2091 1.99126 44.9907 1.87364C44.7722 1.75601 44.495 1.6972 44.1589 1.6972C43.8396 1.6972 43.5428 1.75321 43.2683 1.86523C42.9994 1.97166 42.7838 2.1341 42.6213 2.35255C42.4589 2.5654 42.3777 2.83146 42.3777 3.15073C42.3777 3.32998 42.4197 3.47281 42.5037 3.57923C42.5933 3.68006 42.725 3.76128 42.8986 3.82289C43.0722 3.88451 43.2823 3.94892 43.5287 4.01614C43.9096 4.11696 44.2037 4.22058 44.411 4.32701C44.6182 4.42783 44.7218 4.59867 44.7218 4.83953C44.7218 5.06358 44.6546 5.26243 44.5202 5.43607C44.3913 5.60411 44.2121 5.73574 43.9825 5.83096C43.7528 5.92058 43.4923 5.96539 43.2011 5.96539C42.921 5.96539 42.6717 5.91498 42.4533 5.81415C42.2404 5.70773 42.0444 5.54809 41.8652 5.33524L41.6719 5.52849C41.8344 5.75814 42.0416 5.93178 42.2937 6.04941ZM51.8297 5.97379C52.0705 6.13623 52.3702 6.21745 52.7287 6.21745C53.0592 6.21745 53.3728 6.15023 53.6697 6.0158C53.9722 5.87577 54.2382 5.68252 54.4679 5.43607C54.7032 5.18961 54.888 4.90394 55.0224 4.57907C55.1569 4.25419 55.2241 3.90411 55.2241 3.52882C55.2241 3.19274 55.1653 2.88747 55.0476 2.61301C54.93 2.33294 54.7508 2.11169 54.5099 1.94925C54.2691 1.78122 53.9694 1.6972 53.6109 1.6972C53.2916 1.6972 52.9808 1.76721 52.6783 1.90724C52.3758 2.04168 52.1069 2.23492 51.8717 2.48698C51.6364 2.73344 51.4488 3.0191 51.3088 3.34398C51.1743 3.66885 51.1071 4.02174 51.1071 4.40263C51.1071 4.7331 51.1659 5.03837 51.2836 5.31844C51.4068 5.5929 51.5888 5.81135 51.8297 5.97379ZM53.5773 5.77215C53.3196 5.88977 53.0536 5.94859 52.7791 5.94859C52.4766 5.94859 52.2218 5.87857 52.0145 5.73854C51.8073 5.5985 51.6532 5.40806 51.5524 5.1672C51.4516 4.92635 51.4012 4.65749 51.4012 4.36062C51.4012 4.02454 51.46 3.71367 51.5776 3.428C51.7009 3.13673 51.8633 2.88187 52.0649 2.66342C52.2722 2.43937 52.5046 2.26853 52.7623 2.1509C53.02 2.02767 53.286 1.96606 53.5605 1.96606C53.8686 1.96606 54.1234 2.03887 54.3251 2.18451C54.5267 2.33014 54.6779 2.52619 54.7788 2.77265C54.8852 3.0135 54.9384 3.28236 54.9384 3.57923C54.9384 3.90971 54.8768 4.22058 54.7536 4.51185C54.6359 4.79752 54.4735 5.04958 54.2663 5.26803C54.0646 5.48648 53.8349 5.65452 53.5773 5.77215ZM57.8155 6.21745C57.457 6.21745 57.1573 6.13623 56.9165 5.97379C56.6756 5.81135 56.4936 5.5929 56.3703 5.31844C56.2527 5.03837 56.1939 4.7331 56.1939 4.40263C56.1939 4.02174 56.2611 3.66885 56.3956 3.34398C56.5356 3.0191 56.7232 2.73344 56.9585 2.48698C57.1937 2.23492 57.4626 2.04168 57.7651 1.90724C58.0675 1.76721 58.3784 1.6972 58.6977 1.6972C59.0562 1.6972 59.3558 1.78122 59.5967 1.94925C59.8376 2.11169 60.0168 2.33294 60.1344 2.61301C60.2521 2.88747 60.3109 3.19274 60.3109 3.52882C60.3109 3.90411 60.2437 4.25419 60.1092 4.57907C59.9748 4.90394 59.7899 5.18961 59.5547 5.43607C59.325 5.68252 59.059 5.87577 58.7565 6.0158C58.4596 6.15023 58.146 6.21745 57.8155 6.21745ZM57.8659 5.94859C58.1404 5.94859 58.4064 5.88977 58.6641 5.77215C58.9217 5.65452 59.1514 5.48648 59.353 5.26803C59.5603 5.04958 59.7227 4.79752 59.8404 4.51185C59.9636 4.22058 60.0252 3.90971 60.0252 3.57923C60.0252 3.28236 59.972 3.0135 59.8656 2.77265C59.7647 2.52619 59.6135 2.33014 59.4119 2.18451C59.2102 2.03887 58.9554 1.96606 58.6473 1.96606C58.3728 1.96606 58.1068 2.02767 57.8491 2.1509C57.5914 2.26853 57.359 2.43937 57.1517 2.66342C56.9501 2.88187 56.7876 3.13673 56.6644 3.428C56.5468 3.71367 56.488 4.02454 56.488 4.36062C56.488 4.65749 56.5384 4.92635 56.6392 5.1672C56.74 5.40806 56.8941 5.5985 57.1013 5.73854C57.3086 5.87857 57.5634 5.94859 57.8659 5.94859ZM61.3749 5.53689V5.62091C61.3749 5.79455 61.4337 5.93178 61.5513 6.03261C61.6746 6.12783 61.8286 6.17544 62.0134 6.17544C62.1591 6.17544 62.2935 6.15863 62.4167 6.12503C62.5456 6.08582 62.652 6.04661 62.736 6.0074C62.82 5.96259 62.8676 5.93738 62.8788 5.93178L62.8284 5.69653C62.8172 5.70773 62.7752 5.73014 62.7024 5.76374C62.6352 5.79175 62.5512 5.82256 62.4503 5.85616C62.3495 5.88977 62.2403 5.90658 62.1227 5.90658C62.005 5.90658 61.9014 5.87297 61.8118 5.80575C61.7222 5.73294 61.6774 5.62931 61.6774 5.49488C61.6774 5.46127 61.683 5.41366 61.6942 5.35205C61.7054 5.29043 61.725 5.19521 61.753 5.06638L62.4083 2.01647H63.3914L63.4502 1.76441H62.4672L62.7864 0.26046H62.5008L62.1815 1.76441H61.5849L61.5345 2.01647H62.1227L61.3917 5.45287L61.3749 5.53689ZM64.8194 1.76441H65.1051L64.1809 6.13343H63.8952L64.8194 1.76441ZM65.1975 0H65.4832L65.332 0.705764H65.0463L65.1975 0ZM67.0326 1.76441H66.7637L65.8395 6.13343H66.1252L66.7049 3.40279C66.8393 3.12833 67.0186 2.88467 67.2426 2.67182C67.4667 2.45337 67.7103 2.28253 67.9736 2.1593C68.2368 2.03047 68.4917 1.96606 68.7382 1.96606C68.9846 1.96606 69.1695 2.03887 69.2927 2.18451C69.4159 2.33014 69.4775 2.5542 69.4775 2.85667C69.4775 2.97429 69.4691 3.10312 69.4523 3.24316C69.4411 3.37759 69.4159 3.52882 69.3767 3.69686L68.8642 6.13343H69.1499L69.6708 3.66325C69.7044 3.48961 69.7296 3.32718 69.7464 3.17594C69.7688 3.0247 69.78 2.88467 69.78 2.75584C69.78 2.52059 69.7464 2.32454 69.6792 2.1677C69.6176 2.01087 69.5167 1.89324 69.3767 1.81482C69.2423 1.7364 69.0686 1.6972 68.8558 1.6972C68.6093 1.6972 68.3573 1.74761 68.0996 1.84843C67.8476 1.94365 67.6095 2.07808 67.3854 2.25172C67.1614 2.42537 66.9681 2.62701 66.8057 2.85667L67.0326 1.76441ZM72.0309 8.00707C71.566 8.00707 71.2047 7.91184 70.947 7.7214C70.695 7.53095 70.5213 7.2845 70.4261 6.98203L70.6614 6.8644C70.7734 7.17247 70.947 7.39652 71.1823 7.53656C71.4175 7.68219 71.7172 7.75501 72.0813 7.75501C72.3726 7.75501 72.6498 7.69899 72.9131 7.58697C73.1819 7.47494 73.4116 7.3069 73.602 7.08285C73.7981 6.8644 73.9297 6.59274 73.9969 6.26786L74.2238 5.24282C73.9941 5.52849 73.7141 5.76094 73.3836 5.94018C73.0531 6.11943 72.7338 6.20905 72.4258 6.20905C72.1009 6.20905 71.8208 6.12223 71.5856 5.94859C71.3559 5.77495 71.1795 5.54809 71.0562 5.26803C70.933 4.98796 70.8714 4.68829 70.8714 4.36902C70.8714 4.03854 70.9358 3.71647 71.0646 3.40279C71.1991 3.08352 71.3811 2.79785 71.6108 2.54579C71.8404 2.28813 72.1037 2.08369 72.4006 1.93245C72.6974 1.77561 73.0083 1.6972 73.3332 1.6972C73.7029 1.6972 73.9997 1.80082 74.2238 2.00807C74.4534 2.21532 74.6355 2.46457 74.7699 2.75584L74.98 1.76441H75.2404L74.2826 6.26786C74.2042 6.65435 74.0473 6.97643 73.8121 7.23409C73.5824 7.49735 73.3108 7.69059 72.9971 7.81382C72.6834 7.94265 72.3614 8.00707 72.0309 8.00707ZM72.535 5.94859C72.7198 5.94859 72.9075 5.91218 73.0979 5.83936C73.2884 5.76654 73.4676 5.66852 73.6356 5.54529C73.8093 5.42206 73.9577 5.28763 74.0809 5.142C74.2042 4.99076 74.291 4.83953 74.3414 4.68829L74.6607 3.18434C74.6271 2.94349 74.5459 2.73344 74.417 2.55419C74.2882 2.36935 74.1258 2.22652 73.9297 2.1257C73.7393 2.01927 73.532 1.96606 73.308 1.96606C73.0055 1.96606 72.7226 2.03887 72.4594 2.18451C72.2017 2.32454 71.9749 2.51219 71.7788 2.74744C71.5884 2.98269 71.4371 3.24035 71.3251 3.52042C71.2187 3.79488 71.1655 4.06375 71.1655 4.32701C71.1655 4.61828 71.2215 4.88714 71.3335 5.1336C71.4455 5.38005 71.6024 5.5789 71.804 5.73013C72.0113 5.87577 72.2549 5.94859 72.535 5.94859ZM79.1556 6.04101C79.3685 6.15863 79.6121 6.21745 79.8866 6.21745C80.2339 6.21745 80.5727 6.12783 80.9032 5.94859C81.2337 5.76374 81.539 5.51168 81.819 5.19241L81.8428 5.16463L82.508 6.13343H82.8945L82.0412 4.91233C82.2286 4.65557 82.3954 4.37084 82.5416 4.05815C82.7143 3.69413 82.8481 3.30484 82.943 2.89027H83.7683L83.8187 2.63821H82.9953H82.8021H82.718C82.6284 3.10312 82.4912 3.53722 82.3063 3.94052C82.1839 4.21227 82.0444 4.46309 81.8879 4.69299L80.4579 2.64662C80.3347 2.46737 80.2339 2.30774 80.1554 2.1677C80.077 2.02767 80.021 1.90164 79.9874 1.78962C79.9538 1.67759 79.937 1.57397 79.937 1.47874C79.937 1.2827 80.0014 1.09786 80.1302 0.924215C80.2591 0.744974 80.4243 0.60214 80.6259 0.495716C80.8332 0.383689 81.0545 0.327676 81.2897 0.327676C81.5586 0.327676 81.7966 0.400493 82.0039 0.546127C82.2167 0.691761 82.3736 0.893408 82.4744 1.15107L82.6676 0.974627C82.5892 0.789784 82.4828 0.632948 82.3484 0.504117C82.2195 0.369686 82.0683 0.268863 81.8946 0.201647C81.721 0.12883 81.5334 0.0924213 81.3317 0.0924213C81.0404 0.0924213 80.766 0.159637 80.5083 0.294068C80.2563 0.422898 80.0518 0.593738 79.895 0.806588C79.7381 1.01944 79.6597 1.25469 79.6597 1.51235C79.6597 1.63558 79.6821 1.76721 79.7269 1.90724C79.7774 2.04168 79.8558 2.20131 79.9622 2.38616C80.0189 2.4817 80.086 2.58919 80.1634 2.70861C79.9171 2.85319 79.696 2.99776 79.5001 3.14233C79.2704 3.31037 79.0772 3.48401 78.9203 3.66325C78.7691 3.8425 78.6571 4.03014 78.5843 4.22618C78.5115 4.41663 78.475 4.61548 78.475 4.82272C78.475 5.09719 78.5339 5.34084 78.6515 5.55369C78.7747 5.76094 78.9427 5.92338 79.1556 6.04101ZM80.2997 2.91515C79.9958 3.0945 79.7377 3.27385 79.5253 3.4532C79.2732 3.66045 79.0856 3.8733 78.9624 4.09175C78.8391 4.3102 78.7775 4.54546 78.7775 4.79752C78.7775 5.1392 78.8839 5.41926 79.0968 5.63771C79.3152 5.85056 79.5953 5.95699 79.937 5.95699C80.2451 5.95699 80.5447 5.87297 80.836 5.70493C81.1329 5.53689 81.4073 5.30164 81.6594 4.99916L81.6802 4.97354L81.6971 4.95244L80.3907 3.04991C80.3592 3.0037 80.3289 2.95878 80.2997 2.91515ZM89.8724 0.168039H90.1244L91.2839 6.13343H90.973L90.5781 4.07495H87.7551L86.4864 6.13343H86.1671L89.8724 0.168039ZM90.5445 3.82289L89.9228 0.537725L87.8895 3.82289H90.5445ZM93.6233 1.76441H93.3461L92.4218 6.13343H92.7075L93.2872 3.38599C93.4833 2.97709 93.7494 2.65502 94.0854 2.41976C94.4215 2.17891 94.78 2.05008 95.1609 2.03327L95.2197 1.77281C95.1973 1.76721 95.1693 1.76441 95.1357 1.76441C95.1077 1.76441 95.0769 1.76721 95.0433 1.77281C94.7464 1.79522 94.4523 1.90164 94.161 2.09209C93.8698 2.27693 93.6121 2.53739 93.3881 2.87347L93.6233 1.76441ZM97.0241 6.21745C96.6992 6.21745 96.4135 6.13623 96.1671 5.97379C95.9262 5.80575 95.7386 5.5817 95.6041 5.30163C95.4753 5.02157 95.4109 4.7107 95.4109 4.36902C95.4109 4.00493 95.4809 3.66325 95.6209 3.34398C95.761 3.0247 95.9486 2.74184 96.1839 2.49538C96.4247 2.24892 96.6964 2.05568 96.9989 1.91565C97.3069 1.77001 97.629 1.6972 97.9651 1.6972C98.3292 1.6972 98.6345 1.78682 98.8809 1.96606C99.1274 2.1397 99.287 2.38055 99.3598 2.68863L99.0573 2.78945C98.9845 2.53179 98.8501 2.33014 98.6541 2.18451C98.458 2.03887 98.2255 1.96606 97.9567 1.96606C97.671 1.96606 97.3938 2.02767 97.1249 2.1509C96.856 2.27413 96.6152 2.44497 96.4023 2.66342C96.1895 2.88187 96.0186 3.13393 95.8898 3.4196C95.7666 3.70526 95.705 4.00493 95.705 4.31861C95.705 4.62108 95.761 4.89554 95.873 5.142C95.9906 5.38846 96.1503 5.5845 96.3519 5.73013C96.5536 5.87577 96.786 5.94859 97.0493 5.94859C97.2565 5.94859 97.4638 5.90938 97.671 5.83096C97.8839 5.74694 98.0771 5.64051 98.2508 5.51168C98.4244 5.37725 98.5448 5.23442 98.612 5.08318L98.8809 5.1672C98.7745 5.36885 98.6204 5.55089 98.4188 5.71333C98.2227 5.87017 98.0015 5.9934 97.755 6.08302C97.5142 6.17264 97.2705 6.21745 97.0241 6.21745ZM101.566 0H101.28L99.978 6.13343H100.264L100.843 3.40279C100.972 3.12833 101.143 2.88467 101.356 2.67182C101.569 2.45337 101.801 2.28253 102.053 2.1593C102.305 2.03047 102.552 1.96606 102.793 1.96606C103.062 1.96606 103.263 2.05008 103.398 2.21812C103.538 2.38055 103.608 2.62421 103.608 2.94909C103.608 3.05551 103.599 3.17314 103.582 3.30197C103.566 3.4252 103.543 3.55683 103.515 3.69686L103.003 6.13343H103.288L103.809 3.66325C103.843 3.51202 103.865 3.36918 103.877 3.23475C103.893 3.09472 103.902 2.96589 103.902 2.84826C103.902 2.60181 103.865 2.39456 103.793 2.22652C103.72 2.05288 103.61 1.92125 103.465 1.83163C103.319 1.74201 103.134 1.6972 102.91 1.6972C102.557 1.6972 102.205 1.80362 101.852 2.01647C101.499 2.22372 101.202 2.50378 100.961 2.85667L101.566 0ZM105.825 1.76441H106.111L105.186 6.13343H104.901L105.825 1.76441ZM106.203 0H106.489L106.337 0.705764H106.052L106.203 0ZM107.122 5.53689V5.62091C107.122 5.79455 107.181 5.93178 107.299 6.03261C107.422 6.12783 107.576 6.17544 107.761 6.17544C107.906 6.17544 108.041 6.15863 108.164 6.12503C108.293 6.08582 108.399 6.04661 108.483 6.0074C108.567 5.96259 108.615 5.93738 108.626 5.93178L108.576 5.69653C108.565 5.70773 108.523 5.73014 108.45 5.76374C108.383 5.79175 108.299 5.82256 108.198 5.85616C108.097 5.88977 107.988 5.90658 107.87 5.90658C107.752 5.90658 107.649 5.87297 107.559 5.80575C107.47 5.73294 107.425 5.62931 107.425 5.49488C107.425 5.46127 107.43 5.41366 107.442 5.35205C107.453 5.29043 107.472 5.19521 107.5 5.06638L108.156 2.01647H109.139L109.198 1.76441H108.215L108.534 0.26046H108.248L107.929 1.76441H107.332L107.282 2.01647H107.87L107.139 5.45287L107.122 5.53689ZM111.351 6.21745C111.009 6.21745 110.715 6.13343 110.468 5.96539C110.222 5.79735 110.031 5.5733 109.897 5.29323C109.763 5.01317 109.693 4.7051 109.687 4.36902C109.676 4.03294 109.729 3.70806 109.847 3.39439C109.964 3.07512 110.132 2.78945 110.351 2.53739C110.569 2.27973 110.827 2.07528 111.124 1.92405C111.426 1.77281 111.754 1.6972 112.107 1.6972C112.364 1.6972 112.6 1.74201 112.812 1.83163C113.025 1.91565 113.196 2.04728 113.325 2.22652C113.454 2.40016 113.518 2.62141 113.518 2.89027C113.535 3.33278 113.359 3.64365 112.989 3.82289C112.625 3.99653 112.067 4.08335 111.317 4.08335C111.104 4.08335 110.88 4.08055 110.645 4.07495C110.447 4.06552 110.229 4.05213 109.991 4.03478C109.983 4.12099 109.979 4.20719 109.981 4.2934C109.987 4.60707 110.045 4.89274 110.157 5.1504C110.269 5.40246 110.432 5.60411 110.645 5.75534C110.858 5.90098 111.115 5.97379 111.418 5.97379C111.771 5.97379 112.081 5.88977 112.35 5.72173C112.619 5.54809 112.829 5.31844 112.981 5.03277L113.241 5.10839C113.123 5.33244 112.972 5.52849 112.787 5.69653C112.602 5.85897 112.39 5.9878 112.149 6.08302C111.908 6.17264 111.642 6.21745 111.351 6.21745ZM110.124 3.47001C110.084 3.57841 110.052 3.68681 110.029 3.79521C110.287 3.80941 110.511 3.82143 110.704 3.83129C110.928 3.83689 111.14 3.83969 111.342 3.83969C111.824 3.83969 112.205 3.80609 112.485 3.73887C112.765 3.66605 112.964 3.55963 113.081 3.4196C113.199 3.27956 113.252 3.10592 113.241 2.89868C113.241 2.66902 113.182 2.48698 113.065 2.35255C112.947 2.21252 112.798 2.11169 112.619 2.05008C112.446 1.98286 112.264 1.94925 112.073 1.94925C111.771 1.94925 111.488 2.01927 111.224 2.1593C110.967 2.29934 110.743 2.48418 110.552 2.71383C110.367 2.93788 110.225 3.18994 110.124 3.47001ZM115.201 5.97379C115.448 6.13623 115.733 6.21745 116.058 6.21745C116.305 6.21745 116.548 6.17264 116.789 6.08302C117.036 5.9934 117.257 5.87017 117.453 5.71333C117.654 5.55089 117.809 5.36885 117.915 5.1672L117.646 5.08318C117.579 5.23442 117.458 5.37725 117.285 5.51168C117.111 5.64051 116.918 5.74694 116.705 5.83096C116.498 5.90938 116.291 5.94859 116.083 5.94859C115.82 5.94859 115.588 5.87577 115.386 5.73013C115.184 5.5845 115.025 5.38846 114.907 5.142C114.795 4.89554 114.739 4.62108 114.739 4.31861C114.739 4.00493 114.801 3.70526 114.924 3.4196C115.053 3.13393 115.224 2.88187 115.436 2.66342C115.649 2.44497 115.89 2.27413 116.159 2.1509C116.428 2.02767 116.705 1.96606 116.991 1.96606C117.26 1.96606 117.492 2.03887 117.688 2.18451C117.884 2.33014 118.019 2.53179 118.091 2.78945L118.394 2.68863C118.321 2.38055 118.161 2.1397 117.915 1.96606C117.668 1.78682 117.363 1.6972 116.999 1.6972C116.663 1.6972 116.341 1.77001 116.033 1.91565C115.73 2.05568 115.459 2.24892 115.218 2.49538C114.983 2.74184 114.795 3.0247 114.655 3.34398C114.515 3.66325 114.445 4.00493 114.445 4.36902C114.445 4.7107 114.509 5.02157 114.638 5.30163C114.773 5.5817 114.96 5.80575 115.201 5.97379ZM119.289 5.62091V5.53689L119.306 5.45287L120.037 2.01647H119.449L119.499 1.76441H120.096L120.415 0.26046H120.701L120.382 1.76441H121.365L121.306 2.01647H120.323L119.667 5.06638C119.639 5.19521 119.62 5.29043 119.609 5.35205C119.597 5.41366 119.592 5.46127 119.592 5.49488C119.592 5.62931 119.637 5.73294 119.726 5.80575C119.816 5.87297 119.919 5.90658 120.037 5.90658C120.155 5.90658 120.264 5.88977 120.365 5.85616C120.466 5.82256 120.55 5.79175 120.617 5.76374C120.69 5.73014 120.732 5.70773 120.743 5.69653L120.793 5.93178C120.782 5.93738 120.734 5.96259 120.65 6.0074C120.566 6.04661 120.46 6.08582 120.331 6.12503C120.208 6.15863 120.074 6.17544 119.928 6.17544C119.743 6.17544 119.589 6.12783 119.466 6.03261C119.348 5.93178 119.289 5.79455 119.289 5.62091ZM122.053 5.05798C122.053 5.83096 122.392 6.21745 123.07 6.21745C123.44 6.21745 123.807 6.11382 124.171 5.90658C124.535 5.69933 124.846 5.41646 125.103 5.05798C125.053 5.29884 125.016 5.47528 124.994 5.5873C124.972 5.69373 124.958 5.76374 124.952 5.79735C124.946 5.83096 124.944 5.85616 124.944 5.87297C124.944 5.94018 124.96 5.9962 124.994 6.04101C125.033 6.08582 125.084 6.11382 125.145 6.12503C125.162 6.13063 125.182 6.13343 125.204 6.13343H125.28L125.347 5.86457C125.263 5.86457 125.221 5.82256 125.221 5.73854C125.221 5.72733 125.226 5.69933 125.238 5.65452L125.271 5.50328L126.061 1.76441H125.775L125.187 4.53706C125.053 4.81152 124.874 5.05798 124.65 5.27643C124.431 5.48928 124.196 5.65452 123.944 5.77215C123.692 5.88977 123.44 5.94859 123.188 5.94859C122.627 5.94859 122.347 5.62931 122.347 4.99076C122.347 4.76671 122.381 4.50905 122.448 4.21778L122.969 1.76441H122.683L122.154 4.25139C122.121 4.40263 122.095 4.54546 122.079 4.67989C122.062 4.81432 122.053 4.94035 122.053 5.05798ZM127.739 1.76441H128.016L127.781 2.87347C128.005 2.53739 128.262 2.27693 128.554 2.09209C128.845 1.90164 129.139 1.79522 129.436 1.77281C129.469 1.76721 129.5 1.76441 129.528 1.76441C129.562 1.76441 129.59 1.76721 129.612 1.77281L129.553 2.03327C129.173 2.05008 128.814 2.17891 128.478 2.41976C128.142 2.65502 127.876 2.97709 127.68 3.38599L127.1 6.13343H126.814L127.739 1.76441ZM130.61 5.96539C130.856 6.13343 131.151 6.21745 131.492 6.21745C131.784 6.21745 132.05 6.17264 132.29 6.08302C132.531 5.9878 132.744 5.85897 132.929 5.69653C133.114 5.52849 133.265 5.33244 133.383 5.10839L133.122 5.03277C132.971 5.31844 132.761 5.54809 132.492 5.72173C132.223 5.88977 131.912 5.97379 131.559 5.97379C131.257 5.97379 130.999 5.90098 130.786 5.75534C130.574 5.60411 130.411 5.40246 130.299 5.1504C130.187 4.89274 130.128 4.60707 130.123 4.2934C130.121 4.20719 130.124 4.12099 130.133 4.03478C130.371 4.05213 130.589 4.06552 130.786 4.07495C131.022 4.08055 131.246 4.08335 131.459 4.08335C132.209 4.08335 132.767 3.99653 133.131 3.82289C133.5 3.64365 133.677 3.33278 133.66 2.89027C133.66 2.62141 133.596 2.40016 133.467 2.22652C133.338 2.04728 133.167 1.91565 132.954 1.83163C132.741 1.74201 132.506 1.6972 132.248 1.6972C131.896 1.6972 131.568 1.77281 131.265 1.92405C130.969 2.07528 130.711 2.27973 130.492 2.53739C130.274 2.78945 130.106 3.07512 129.988 3.39439C129.871 3.70806 129.817 4.03294 129.829 4.36902C129.834 4.7051 129.904 5.01317 130.039 5.29323C130.173 5.5733 130.364 5.79735 130.61 5.96539ZM130.171 3.79521C130.194 3.68681 130.226 3.57841 130.266 3.47001C130.366 3.18994 130.509 2.93788 130.694 2.71383C130.885 2.48418 131.109 2.29934 131.366 2.1593C131.629 2.01927 131.912 1.94925 132.215 1.94925C132.405 1.94925 132.587 1.98286 132.761 2.05008C132.94 2.11169 133.089 2.21252 133.206 2.35255C133.324 2.48698 133.383 2.66902 133.383 2.89868C133.394 3.10592 133.341 3.27956 133.223 3.4196C133.105 3.55963 132.907 3.66605 132.627 3.73887C132.346 3.80609 131.966 3.83969 131.484 3.83969C131.282 3.83969 131.069 3.83689 130.845 3.83129C130.653 3.82143 130.428 3.80941 130.171 3.79521ZM41.6682 16.5123L32.7362 46.6398H27.1429L20.8124 23.8383L14.0917 46.6398L8.54176 46.6832L0 16.5123H5.24646L11.4902 41.0478L18.2542 16.5123H23.8042L30.0913 40.9178L36.3784 16.5123H41.6682ZM56.8005 46.6485C54.0589 46.6485 51.5293 46.0127 49.2116 44.7411C46.9223 43.4413 45.0993 41.647 43.7426 39.3582C42.4142 37.0411 41.75 34.4414 41.75 31.5592C41.75 28.677 42.4142 26.0914 43.7426 23.8026C45.0993 21.5138 46.9223 19.7336 49.2116 18.462C51.5293 17.1622 54.0589 16.5123 56.8005 16.5123C59.5703 16.5123 62.0999 17.1622 64.3893 18.462C66.7069 19.7336 68.5299 21.5138 69.8583 23.8026C71.1867 26.0914 71.8509 28.677 71.8509 31.5592C71.8509 34.4414 71.1867 37.0411 69.8583 39.3582C68.5299 41.647 66.7069 43.4413 64.3893 44.7411C62.0999 46.0127 59.5703 46.6485 56.8005 46.6485ZM56.8005 42.4523C58.7507 42.4523 60.4889 42.0143 62.0151 41.1383C63.5414 40.2341 64.7284 38.9626 65.5764 37.3236C66.4525 35.6565 66.8906 33.735 66.8906 31.5592C66.8906 29.3834 66.4525 27.476 65.5764 25.8371C64.7284 24.1982 63.5414 22.9408 62.0151 22.0648C60.4889 21.1888 58.7507 20.7508 56.8005 20.7508C54.8503 20.7508 53.112 21.1888 51.5858 22.0648C50.0595 22.9408 48.8583 24.1982 47.9822 25.8371C47.1343 27.476 46.7103 29.3834 46.7103 31.5592C46.7103 33.735 47.1343 35.6565 47.9822 37.3236C48.8583 38.9626 50.0595 40.2341 51.5858 41.1383C53.112 42.0143 54.8503 42.4523 56.8005 42.4523ZM83.9787 34.5888L90.9162 46.6398H96.813L89.3552 34.1553C91.7255 33.5773 93.4744 32.4936 94.6017 30.9041C95.7579 29.2858 96.3361 27.494 96.3361 25.5289C96.3361 23.8527 95.9314 22.3355 95.122 20.9772C94.3416 19.6189 93.1419 18.5352 91.5232 17.726C89.9334 16.9169 87.9822 16.5123 85.6697 16.5123H75.2635V46.6398H80.2064V34.5888H83.9787ZM85.6697 30.644H80.2064V20.5437H85.6697C87.5486 20.5437 88.9506 20.9917 89.8755 21.8875C90.8006 22.7545 91.263 23.9683 91.263 25.5289C91.263 27.0894 90.7861 28.3321 89.8322 29.2569C88.9072 30.1817 87.5197 30.644 85.6697 30.644ZM107.165 42.6517H119.566V46.6398H102.222V16.5123H107.165V42.6517ZM142.412 18.3763C140.013 17.1336 137.209 16.5123 134 16.5123H124.158V46.6398H134C137.209 46.6398 140.013 46.0474 142.412 44.8625C144.84 43.6487 146.705 41.9148 148.005 39.6606C149.335 37.4065 150 34.7477 150 31.6844C150 28.6211 149.335 25.9479 148.005 23.6649C146.705 21.3529 144.84 19.5901 142.412 18.3763ZM142.109 39.7473C140.23 41.6547 137.527 42.6084 134 42.6084H129.101V20.5437H134C137.527 20.5437 140.23 21.5263 142.109 23.4915C143.988 25.4566 144.927 28.1876 144.927 31.6844C144.927 35.1523 143.988 37.84 142.109 39.7473ZM103.336 56.1873C103.336 55.3172 103.521 54.5434 103.892 53.8657C104.271 53.1797 104.789 52.6442 105.444 52.2594C106.108 51.8745 106.849 51.6821 107.668 51.6821C108.703 51.6821 109.573 51.9164 110.28 52.3849C110.987 52.8534 111.504 53.5101 111.832 54.3551H111.159C110.901 53.6858 110.47 53.1588 109.866 52.7739C109.271 52.3807 108.539 52.1841 107.668 52.1841C106.97 52.1841 106.336 52.3472 105.767 52.6735C105.198 52.9914 104.75 53.4558 104.422 54.0665C104.095 54.6689 103.931 55.3758 103.931 56.1873C103.931 56.9905 104.095 57.6933 104.422 58.2956C104.75 58.8896 105.198 59.3498 105.767 59.676C106.336 60.0023 106.97 60.1655 107.668 60.1655C108.539 60.1655 109.271 59.973 109.866 59.5882C110.47 59.195 110.901 58.6637 111.159 57.9944H111.832C111.504 58.8394 110.987 59.4962 110.28 59.9647C109.573 60.4332 108.703 60.6674 107.668 60.6674C106.849 60.6674 106.108 60.4792 105.444 60.1027C104.789 59.7179 104.271 59.1866 103.892 58.509C103.521 57.8229 103.336 57.0491 103.336 56.1873ZM54.7161 60.68C53.8799 60.68 53.1256 60.4917 52.4532 60.1153C51.7808 59.7304 51.2549 59.195 50.8756 58.509C50.4963 57.8229 50.3066 57.0491 50.3066 56.1873C50.3066 55.3172 50.4963 54.5434 50.8756 53.8657C51.2549 53.1797 51.7808 52.6484 52.4532 52.2719C53.1256 51.8871 53.8799 51.6947 54.7161 51.6947C55.5523 51.6947 56.3067 51.8871 56.9791 52.2719C57.6515 52.6484 58.1774 53.1797 58.5567 53.8657C58.936 54.5434 59.1256 55.3172 59.1256 56.1873C59.1256 57.0491 58.936 57.8229 58.5567 58.509C58.1774 59.195 57.6515 59.7304 56.9791 60.1153C56.3067 60.4917 55.5523 60.68 54.7161 60.68ZM54.7161 60.178C55.4316 60.178 56.0782 60.0149 56.6558 59.6886C57.2334 59.3623 57.686 58.898 58.0136 58.2956C58.3498 57.6933 58.5179 56.9905 58.5179 56.1873C58.5179 55.3758 58.3498 54.6689 58.0136 54.0665C57.686 53.4641 57.2334 52.9998 56.6558 52.6735C56.0782 52.3472 55.4316 52.1841 54.7161 52.1841C54.0006 52.1841 53.354 52.3472 52.7765 52.6735C52.1989 52.9998 51.742 53.4641 51.4058 54.0665C51.0695 54.6689 50.9014 55.3758 50.9014 56.1873C50.9014 56.9905 51.0695 57.6933 51.4058 58.2956C51.742 58.898 52.1989 59.3623 52.7765 59.6886C53.354 60.0149 54.0006 60.178 54.7161 60.178ZM49.2241 51.77L46.7155 60.5796H46.0819L43.5991 52.6484L41.0775 60.5796H40.4698L37.9999 51.77H38.6206L40.793 59.789L43.2887 51.77H43.9353L46.4051 59.8392L48.5905 51.77H49.2241ZM64.3581 56.8273L66.6857 60.5796H67.384L65.0046 56.7772C65.7546 56.6768 66.3236 56.409 66.7115 55.974C67.1081 55.5306 67.3064 54.9701 67.3064 54.2924C67.3064 53.5311 67.0521 52.9203 66.5434 52.4602C66.0434 52 65.2891 51.77 64.2805 51.77H61.7848V60.5796H62.3667V56.8273H64.3063H64.3581ZM64.3063 56.3505H62.3667V52.2719H64.2805C65.8926 52.2719 66.6986 52.9454 66.6986 54.2924C66.6986 54.9115 66.5003 55.4093 66.1038 55.7858C65.7072 56.1622 65.1081 56.3505 64.3063 56.3505ZM71.6402 60.1027H75.0152V60.5796H71.0583V51.77H71.6402V60.1027ZM83.5524 52.9371C82.7248 52.159 81.5437 51.77 80.0092 51.77H77.4618V60.5796H80.0092C81.5437 60.5796 82.7248 60.1947 83.5524 59.4251C84.3886 58.6554 84.8067 57.5761 84.8067 56.1873C84.8067 54.7985 84.3886 53.7151 83.5524 52.9371ZM83.1386 59.0737C82.423 59.7597 81.3799 60.1027 80.0092 60.1027H78.0437V52.2468H80.0092C81.3799 52.2468 82.423 52.594 83.1386 53.2884C83.8541 53.9828 84.2119 54.9491 84.2119 56.1873C84.2119 57.4172 83.8541 58.3793 83.1386 59.0737ZM90.798 60.1027H94.1731V60.5796H90.2161V51.77H90.798V60.1027ZM101.477 60.1027H98.1016V51.77H97.5197V60.5796H101.477V60.1027Z" fill="white"/>
</svg>
