<svg width="75" height="75" viewBox="0 0 75 75" fill="none" xmlns="http://www.w3.org/2000/svg">
<circle cx="37.5" cy="37.5" r="37.5" fill="#4098FF"/>
<g clip-path="url(#clip0_74_275)">
<path d="M55.05 22H27.75C27.2328 22 26.7368 22.2041 26.3711 22.5675C26.0054 22.9308 25.8 23.4236 25.8 23.9375V29.75H35.55V25.875H47.25V45.25H55.05C55.5672 45.25 56.0632 45.0459 56.4289 44.6825C56.7946 44.3192 57 43.8264 57 43.3125V23.9375C57 23.4236 56.7946 22.9308 56.4289 22.5675C56.0632 22.2041 55.5672 22 55.05 22V22ZM32.1375 28.2363C32.1375 28.3809 32.0797 28.5195 31.9769 28.6216C31.874 28.7238 31.7345 28.7812 31.5891 28.7812H29.7609C29.6155 28.7812 29.476 28.7238 29.3731 28.6216C29.2703 28.5195 29.2125 28.3809 29.2125 28.2363V26.4199C29.2125 26.2754 29.2703 26.1368 29.3731 26.0346C29.476 25.9324 29.6155 25.875 29.7609 25.875H31.5891C31.7345 25.875 31.874 25.9324 31.9769 26.0346C32.0797 26.1368 32.1375 26.2754 32.1375 26.4199V28.2363ZM53.5875 40.8301C53.5875 40.9746 53.5297 41.1132 53.4269 41.2154C53.324 41.3176 53.1845 41.375 53.0391 41.375H51.2109C51.0655 41.375 50.926 41.3176 50.8231 41.2154C50.7203 41.1132 50.6625 40.9746 50.6625 40.8301V39.0137C50.6625 38.8692 50.7203 38.7305 50.8231 38.6284C50.926 38.5262 51.0655 38.4688 51.2109 38.4688H53.0391C53.1845 38.4688 53.324 38.5262 53.4269 38.6284C53.5297 38.7305 53.5875 38.8692 53.5875 39.0137V40.8301ZM53.5875 34.5332C53.5875 34.6777 53.5297 34.8163 53.4269 34.9185C53.324 35.0207 53.1845 35.0781 53.0391 35.0781H51.2109C51.0655 35.0781 50.926 35.0207 50.8231 34.9185C50.7203 34.8163 50.6625 34.6777 50.6625 34.5332V32.7168C50.6625 32.5723 50.7203 32.4337 50.8231 32.3315C50.926 32.2293 51.0655 32.1719 51.2109 32.1719H53.0391C53.1845 32.1719 53.324 32.2293 53.4269 32.3315C53.5297 32.4337 53.5875 32.5723 53.5875 32.7168V34.5332ZM53.5875 28.2363C53.5875 28.3809 53.5297 28.5195 53.4269 28.6216C53.324 28.7238 53.1845 28.7812 53.0391 28.7812H51.2109C51.0655 28.7812 50.926 28.7238 50.8231 28.6216C50.7203 28.5195 50.6625 28.3809 50.6625 28.2363V26.4199C50.6625 26.2754 50.7203 26.1368 50.8231 26.0346C50.926 25.9324 51.0655 25.875 51.2109 25.875H53.0391C53.1845 25.875 53.324 25.9324 53.4269 26.0346C53.5297 26.1368 53.5875 26.2754 53.5875 26.4199V28.2363ZM43.35 31.6875H19.95C19.4328 31.6875 18.9368 31.8916 18.5711 32.255C18.2054 32.6183 18 33.1111 18 33.625V51.0625C18 51.5764 18.2054 52.0692 18.5711 52.4325C18.9368 52.7959 19.4328 53 19.95 53H43.35C43.8672 53 44.3632 52.7959 44.7289 52.4325C45.0946 52.0692 45.3 51.5764 45.3 51.0625V33.625C45.3 33.1111 45.0946 32.6183 44.7289 32.255C44.3632 31.8916 43.8672 31.6875 43.35 31.6875ZM23.85 35.5625C24.2357 35.5625 24.6127 35.6761 24.9334 35.889C25.254 36.1019 25.504 36.4045 25.6516 36.7586C25.7992 37.1126 25.8378 37.5021 25.7625 37.878C25.6873 38.2538 25.5016 38.5991 25.2289 38.87C24.9561 39.141 24.6087 39.3255 24.2304 39.4003C23.8522 39.475 23.4601 39.4367 23.1038 39.29C22.7475 39.1434 22.4429 38.895 22.2286 38.5764C22.0144 38.2578 21.9 37.8832 21.9 37.5C21.9 36.9861 22.1054 36.4933 22.4711 36.13C22.8368 35.7666 23.3328 35.5625 23.85 35.5625ZM41.4 49.125H21.9V47.1875L25.8 43.3125L27.75 45.25L35.55 37.5L41.4 43.3125V49.125Z" fill="white"/>
</g>
<defs>
<clipPath id="clip0_74_275">
<rect width="39" height="31" fill="white" transform="translate(18 22)"/>
</clipPath>
</defs>
</svg>
