<svg width="76" height="75" viewBox="0 0 76 75" fill="none" xmlns="http://www.w3.org/2000/svg">
<circle cx="38" cy="37.5" r="37.5" fill="#4098FF"/>
<path d="M32.1875 39.4375H28.7969C28.5293 39.4375 28.3125 39.2207 28.3125 38.9531V37.9844C28.3125 37.7168 28.5293 37.5 28.7969 37.5H32.1875V33.625H28.7969C28.5293 33.625 28.3125 33.4082 28.3125 33.1406V32.1719C28.3125 31.9043 28.5293 31.6875 28.7969 31.6875H32.1875V27.8125H28.7969C28.5293 27.8125 28.3125 27.5957 28.3125 27.3281V26.3594C28.3125 26.0918 28.5293 25.875 28.7969 25.875H32.1875V23.9375C32.1875 22.8676 31.3199 22 30.25 22H24.4375C23.3676 22 22.5 22.8676 22.5 23.9375V51.0625C22.5 51.2302 22.5551 51.3798 22.5951 51.5348L32.1875 41.9429V39.4375ZM51.5625 43.3125H49.625V46.7031C49.625 46.9707 49.4082 47.1875 49.1406 47.1875H48.1719C47.9043 47.1875 47.6875 46.9707 47.6875 46.7031V43.3125H43.8125V46.7031C43.8125 46.9707 43.5957 47.1875 43.3281 47.1875H42.3594C42.0918 47.1875 41.875 46.9707 41.875 46.7031V43.3125H38V46.7031C38 46.9707 37.7832 47.1875 37.5156 47.1875H36.5469C36.2793 47.1875 36.0625 46.9707 36.0625 46.7031V43.3125H33.5577L23.9652 52.9049C24.1202 52.9449 24.2704 53 24.4375 53H51.5625C52.6324 53 53.5 52.1324 53.5 51.0625V45.25C53.5 44.1801 52.6324 43.3125 51.5625 43.3125Z" fill="white"/>
</svg>
