<svg width="75" height="75" viewBox="0 0 75 75" fill="none" xmlns="http://www.w3.org/2000/svg">
<circle cx="37.5" cy="37.5" r="37.5" fill="#4098FF"/>
<path d="M55 22H21C20.2044 22 19.4413 22.3161 18.8787 22.8787C18.3161 23.4413 18 24.2044 18 25V45C18 45.7956 18.3161 46.5587 18.8787 47.1213C19.4413 47.6839 20.2044 48 21 48H36V50H25C24.7348 50 24.4804 50.1054 24.2929 50.2929C24.1054 50.4804 24 50.7348 24 51V53C24 53.2652 24.1054 53.5196 24.2929 53.7071C24.4804 53.8946 24.7348 54 25 54H51C51.2652 54 51.5196 53.8946 51.7071 53.7071C51.8946 53.5196 52 53.2652 52 53V51C52 50.7348 51.8946 50.4804 51.7071 50.2929C51.5196 50.1054 51.2652 50 51 50H40V48H55C55.7957 48 56.5587 47.6839 57.1213 47.1213C57.6839 46.5587 58 45.7956 58 45V25C58 24.2044 57.6839 23.4413 57.1213 22.8787C56.5587 22.3161 55.7957 22 55 22V22ZM54 44H22V26H54V44Z" fill="white"/>
</svg>
