<svg width="36" height="26" viewBox="0 0 36 26" fill="none" xmlns="http://www.w3.org/2000/svg">
<path d="M35.0744 4.06989C34.6654 2.53017 33.4606 1.31754 31.9309 0.90602C29.1581 0.158234 18.0395 0.158234 18.0395 0.158234C18.0395 0.158234 6.92103 0.158234 4.14818 0.90602C2.61842 1.31761 1.41361 2.53017 1.00469 4.06989C0.261719 6.86071 0.261719 12.6835 0.261719 12.6835C0.261719 12.6835 0.261719 18.5063 1.00469 21.2971C1.41361 22.8368 2.61842 23.9989 4.14818 24.4104C6.92103 25.1582 18.0395 25.1582 18.0395 25.1582C18.0395 25.1582 29.158 25.1582 31.9309 24.4104C33.4606 23.9989 34.6654 22.8368 35.0744 21.2971C35.8173 18.5063 35.8173 12.6835 35.8173 12.6835C35.8173 12.6835 35.8173 6.86071 35.0744 4.06989V4.06989ZM14.4031 17.9701V7.39684L23.696 12.6836L14.4031 17.9701V17.9701Z" fill="white"/>
</svg>
