<svg width="52" height="34" viewBox="0 0 52 34" fill="none" xmlns="http://www.w3.org/2000/svg">
<path opacity="0.5" d="M50.329 5.30543C50.0419 4.28156 49.4825 3.35461 48.7104 2.6231C47.9165 1.8691 46.9434 1.32975 45.8831 1.05595C41.9147 0.0104733 26.0158 0.0104735 26.0158 0.0104735C19.3877 -0.0649006 12.7612 0.266613 6.17381 1.00314C5.11344 1.29717 4.14221 1.84858 3.34649 2.60832C2.56465 3.36021 1.99834 4.28741 1.70251 5.30331C0.991859 9.12984 0.646578 13.0152 0.671318 16.907C0.64596 20.7953 0.990395 24.6794 1.70251 28.5107C1.992 29.5224 2.5562 30.4454 3.34016 31.1909C4.12411 31.9365 5.10036 32.4751 6.17381 32.7602C10.195 33.8036 26.0158 33.8036 26.0158 33.8036C32.6523 33.879 39.2872 33.5475 45.8831 32.8109C46.9434 32.5371 47.9165 31.9977 48.7104 31.2437C49.4922 30.4982 50.048 29.571 50.3269 28.5614C51.0561 24.7364 51.4107 20.8494 51.3856 16.9556C51.4404 13.0453 51.0863 9.14002 50.329 5.30331V5.30543ZM20.9612 24.1387V9.67741L34.1892 16.9091L20.9612 24.1387Z" fill="#3C3C3C"/>
<path d="M20.8654 23.9515V9.86236L34.0153 16.907L20.8654 23.9515Z" fill="white"/>
</svg>
